# Eye meshes
# PF_Eyes_L
v 0.03033846442100885 0.7672261071202373 -0.01654720394657166
v 0.02487628767000885 0.7672246575348374 -0.01575029354657166
v 0.02518548816000885 0.7651326775070374 -0.015730460146571663
v 0.02638459764000885 0.7636108424070374 -0.01581737114657166
v 0.025184982460008852 0.7693135093470373 -0.015730085746571663
v 0.02815058059000885 0.7624323298270373 -0.015904798146571662
v 0.02638540324000885 0.7708396934870374 -0.015817961646571663
v 0.03031803906200885 0.7619923427670373 -0.016039126546571664
v 0.02815107885000885 0.7720159171170373 -0.01590511664657166
v 0.03032055916300885 0.7724534631670373 -0.01603973934657166
v 0.03249238315000885 0.7720259879670374 -0.016200435346571663
v 0.03248606029000885 0.7624127985870374 -0.016198894946571663
v 0.03033846442100885 0.7672261071202373 -0.01654720394657166
v 0.03426292702000885 0.7708528924270374 -0.01635379064657166
v 0.03425544314000885 0.7635833765370373 -0.016351194046571663
v 0.03547257930000885 0.7693196891370373 -0.016430013746571662
v 0.03546589194000885 0.7651136040270373 -0.016428354146571664
v 0.03577677300000885 0.7672191643714373 -0.016491134646571662
v 0.030498519540008852 0.7633322931370373 0.01600751565342834
v 0.029056940690008852 0.7637717463070374 0.015905004953428337
v 0.02863382176000885 0.7652008843170374 0.016136883753428338
v 0.02771004988000885 0.7624811576670374 0.015189134553428338
v 0.03048966947200885 0.7651670097870373 0.01643887445342834
v 0.03253448068000885 0.7651100945670374 0.01645099465342834
v 0.03044197143800885 0.7672211480139374 0.016597644453428338
v 0.02629934158000885 0.7645861078070374 0.015333634853428337
v 0.02843174990000885 0.7672191643714373 0.016238584253428338
v 0.02863296098000885 0.7692375970070373 0.01613720235342834
v 0.02579349093000885 0.7672187066073374 0.015398143853428338
v 0.02569687692000885 0.7605501580970373 0.014073206153428337
v 0.02364809113000885 0.7636228967470373 0.014257037153428338
v 0.02878279518000885 0.7584902979470374 0.013897966653428337
v 0.02982474153000885 0.7610613275270374 0.015087734953428338
v 0.02386228181000885 0.7588242366870374 0.012561794453428338
v 0.03243124066000885 0.7605516840670373 0.014934305153428338
v 0.03250091127000885 0.7631278252270374 0.01595486235342834
v 0.03449425986000885 0.7633382440570373 0.01572783385342834
v 0.03234444675000885 0.7577879363670373 0.013672346253428337
v 0.03504074155000885 0.7610622430170374 0.014722744053428338
v 0.02294817008000885 0.7672177147860574 0.014328969653428338
v 0.02629869990000885 0.7698491692970374 0.015333784753428338
v 0.020384000570008852 0.7672170281412074 0.012813733953428337
v 0.02364739496000885 0.7708059714670373 0.014256881553428337
v 0.02128853183000885 0.7626613643970374 0.012746545553428338
v 0.02569058491000885 0.7738766502570373 0.014073265753428339
v 0.02770520048000885 0.7719481680570374 0.015189503353428337
v 0.02128806151000885 0.7717629265970374 0.012746583753428338
v 0.01921520757000885 0.7618638635570374 0.010758993253428337
v 0.022233310160008853 0.7573415404170374 0.010549792153428338
v 0.020874319570008848 0.7561559323070374 0.008156593923428337
v 0.02675161650000885 0.7543089325070373 0.010233201153428339
v 0.018152658870008852 0.7672171807289474 0.010833742153428338
v 0.02770744148000885 0.7562412284070373 0.012298694853428337
v 0.032226429554008854 0.7553356197070373 0.011986173753428338
v 0.03207552968500885 0.7532458519070373 0.009861032513428339
v 0.03675576020000885 0.7562410766070373 0.011666012953428338
v 0.03591309348000885 0.7584912897970374 0.013399950253428338
v 0.01630720127000885 0.7672177910799274 0.008475903453428338
v 0.019214843370008852 0.7725611901870374 0.010758721353428338
v 0.01749400147000885 0.7612335993870374 0.008392953353428339
v 0.01606674217000885 0.7607231163370374 0.005673098413428338
v 0.03897890123000885 0.7605503872070374 0.013144866553428338
v 0.040584750470008854 0.7588231684670373 0.011393045153428337
v 0.03713959036000885 0.7624811576670374 0.014529744153428338
v 0.022230189290008848 0.7770811486970374 0.010549024753428338
v 0.017494270570008852 0.7731948113070374 0.008392773603428338
v 0.014780111570008851 0.7672183251379473 0.005762848573428338
v 0.02385636186000885 0.7756012743370374 0.012561404153428338
v 0.04191334727000885 0.7573373438770373 0.009175640563428338
v 0.04315443987000885 0.7626601434270374 0.011218294553428338
v 0.03740610182000885 0.7543084742070374 0.009489170313428337
v 0.02876134217000885 0.7759324666070374 0.013899539653428338
v 0.02768528042000885 0.7781790942070373 0.012299625253428337
v 0.02981012163000885 0.7733650994470374 0.015088864653428338
v 0.03049254952900885 0.7710942863470374 0.016008473053428337
v 0.03233246622000885 0.7766352100270374 0.013673874553428337
v 0.02905375068000885 0.7706613945770373 0.015905694153428337
v 0.03242458159000885 0.7738756583970373 0.014935744953428337
v 0.03048770013300885 0.7692762017270374 0.016439124053428338
v 0.03253382025000885 0.7693367791370374 0.016451223753428338
v 0.03249841032000885 0.7713076043870374 0.015955883153428337
v 0.03449269105000885 0.7710941338470374 0.015728854653428336
v 0.03503670986000885 0.7733652517170374 0.014724044153428338
v 0.03254672105000885 0.7672260308263373 0.016631855653428337
v 0.03462717100000885 0.7672209954262373 0.016304933453428337
v 0.03455885942000885 0.7692762017270374 0.01615443365342834
v 0.03635373153000885 0.7692375970070373 0.015597345353428337
v 0.03455946967000885 0.7651679255070374 0.016154133753428338
v 0.03635401046000885 0.7652010370470373 0.015597063153428337
v 0.03590462031000885 0.7637735772870373 0.015426055553428337
v 0.03656764096000885 0.7672191643714373 0.015669674653428337
v 0.03855341952000885 0.7645859552970373 0.014476874853428337
v 0.03906245995000885 0.7672191643714373 0.014470805453428338
v 0.04102880508000885 0.7636229731170373 0.013042022553428338
v 0.04172930307000885 0.7672197747224374 0.013017407653428337
v 0.04405597227000885 0.7672193169592374 0.011161734353428338
v 0.04101399425000885 0.7708187890270374 0.013052195353428338
v 0.03854939993000885 0.7698520682770373 0.014479934253428337
v 0.03713756148000885 0.7719496940270374 0.014530934453428337
v 0.03590405034000885 0.7706615470770374 0.015426754053428337
v 0.03897250211000885 0.7738828300470374 0.013147741553428337
v 0.03590446291000885 0.7759332293670373 0.013401461753428337
v 0.04057568125000885 0.7756101246970374 0.011397613253428338
v 0.03221237001700885 0.7790839411070374 0.011988924853428338
v 0.03674451169000885 0.7781798579070374 0.011668514453428338
v 0.03206466493400885 0.7811729452070374 0.009862756393428337
v 0.04313158057000885 0.7717833733170374 0.011237184553428337
v 0.03739728732000885 0.7801108574070373 0.009490097913428338
v 0.041908555670008854 0.7770887017270374 0.009177729523428338
v 0.04292245857000885 0.7782691214070373 0.006617923773428337
v 0.04491211007000885 0.7725843833770374 0.008979928713428337
v 0.02673744736000885 0.7801100947070374 0.010233477753428338
v 0.02087408117000885 0.7782651540070373 0.008156223263428337
v 0.02593242936000885 0.7816619128070373 0.007802743963428338
v 0.03189431963300885 0.7828498091070374 0.007387053723428337
v 0.01606699077000885 0.7737091849570373 0.005673057433428338
v 0.01973735917000885 0.7792087579070374 0.0054164408134283375
v 0.03786007920000885 0.7816619128070373 0.006970403753428338
v 0.015154492070008851 0.7740055108470374 0.0026768739734283377
v 0.02522816276000885 0.7828903217070373 0.005032205063428338
v 0.03817611281000885 0.7828902453070373 0.004127886643428337
v 0.03170103370200885 0.7841809094070373 0.004580034443428338
v 0.02472445089000885 0.7835936751070374 0.0020078241734283377
v 0.018987130370008848 0.7797492240070374 0.002408874023428338
v 0.03149079142900885 0.7849448416070374 0.0015348241834283378
v 0.018503581170008852 0.7800061060070373 -0.0008417939755716623
v 0.014610540170008849 0.7741392538870373 -0.0005633515175716623
v 0.024360056500008852 0.7839345578070374 -0.0012533353465716624
v 0.03825764917000885 0.7835935224070374 0.0010617841434283376
v 0.04366951997000885 0.7792101307070374 0.003744984083428338
v 0.03126318752765885 0.7853147145070374 -0.0017366950265716623
v 0.04733452757000885 0.7737163566070373 0.0034968976734283375
v 0.04399549957000885 0.7797486139070373 0.0006606341704283377
v 0.03816616349000885 0.7839340232070373 -0.0022184364165716624
v 0.03099689306700885 0.7848792281070374 -0.005526543556571662
v 0.02424972132000885 0.7835350819070374 -0.0050529972265716625
v 0.04629263937000885 0.7732128165670373 0.006395693903428337
v 0.04748970087000885 0.7672129082679974 0.006299183743428338
v 0.04599030507000885 0.7672165703770574 0.008890756443428337
v 0.04492924267000885 0.7618589806370374 0.008962584693428338
v 0.04630164147000885 0.7612226130470373 0.0063811336034283375
v 0.04862393807000885 0.7672098565101374 0.003399503223428338
v 0.04291973167000885 0.7561449455070374 0.006619073483428338
v 0.04782588037000885 0.7740013906770373 0.0003948941664283377
v 0.047331819270008846 0.7607039669570373 0.003491222893428338
v 0.03786329087000885 0.7527535278070373 0.006971353703428338
v 0.04365766047000885 0.7551926449070373 0.0037510816834283377
v 0.04781253827000885 0.7604016903770373 0.0003993541544283377
v 0.04916843027000885 0.7672064995765574 0.0003008941494283377
v 0.04791420507000885 0.7741330740970374 -0.0028903449065716623
v 0.03189955052200885 0.7515688352070373 0.0073860339234283374
v 0.03817115119000885 0.7515187096070374 0.004132371433428338
v 0.04928621277000885 0.7672022271158273 -0.002986841096571662
v 0.04402239807000885 0.7800047323070374 -0.002625834856571662
v 0.03774500405000885 0.7835366838070373 -0.005993453746571662
v 0.04346432727000885 0.7797208428070374 -0.006382469986571662
v 0.03073397936500885 0.7833386250070373 -0.009266871926571663
v 0.047342538870008846 0.7739955922570374 -0.006602851636571662
v 0.03693868453000885 0.7821193719070374 -0.009695106146571663
v 0.04217565057000885 0.7786703510070374 -0.010049398046571663
v 0.04009490553000885 0.7766603874070374 -0.013155666146571663
v 0.04589121327000885 0.7734784721370374 -0.010225975846571662
v 0.04865675417000885 0.7671985650067373 -0.0067355725565716625
v 0.04789379057000885 0.7602600883670374 -0.0028829592865716623
v 0.043974500170008854 0.7546425657070374 0.0006712041574283377
v 0.03824389027000885 0.7508068103070373 0.0010698042234283376
v 0.04399359687000885 0.7543761469070374 -0.002612908336571662
v 0.04731840637000885 0.7603932213970374 -0.0065947197965716626
v 0.04702814107000885 0.7671979546548373 -0.010394427846571663
v 0.03170144377500885 0.7502397951070373 0.004580827463428337
v 0.04412055017000885 0.7672026085856474 -0.013477342146571663
v 0.04586787707000885 0.7609130884570373 -0.010218566246571663
v 0.04322545607000885 0.7724430868370373 -0.013331990646571663
v 0.03977389168000885 0.7710628532770374 -0.015405573846571662
v 0.03148700058200885 0.7494765501070374 0.0015375240834283378
v 0.02522867266000885 0.7515296210070374 0.005032679103428338
v 0.03814582853000885 0.7504573855070373 -0.0022084971065716623
v 0.02593697142000885 0.7527570371070373 0.007802523713428338
v 0.01973708157000885 0.7552149994070374 0.005416968403428338
v 0.02472367138000885 0.7508266475070373 0.002008154093428338
v 0.01898694127000885 0.7546768980070373 0.0024089841534283376
v 0.03125634729871885 0.7491025571070373 -0.0017332731165716623
v 0.01515444177000885 0.7604291560170373 0.0026768842134283375
v 0.01461053637000885 0.7602933528870374 -0.0005634389455716623
v 0.013808261570008851 0.7672187066073374 0.0027709841134283377
v 0.013230983170008849 0.7672185540195674 -0.0004688286785716623
v 0.02435865486000885 0.7504848503070374 -0.0012530799365716623
v 0.013333629770008851 0.7672172570228174 -0.0042770825865716625
v 0.01850350107000885 0.7544180322070374 -0.0008420310555716623
v 0.02424838627000885 0.7508863099070373 -0.005054525996571663
v 0.01853329507000885 0.7547058128070373 -0.004646453036571662
v 0.014661863470008848 0.7739989492070374 -0.004326138606571662
v 0.03098821701100885 0.7495371271070373 -0.005525057166571663
v 0.03772059502000885 0.7508523595070373 -0.005986225286571663
v 0.03072527708700885 0.7510828432070373 -0.009267467966571663
v 0.01466206837000885 0.7604315211070374 -0.004326894846571662
v 0.02453099797000885 0.7523142267070374 -0.008836959456571663
v 0.01930252187000885 0.7557682060070373 -0.008464353126571662
v 0.020952476170008852 0.7577953366570374 -0.011840239146571662
v 0.015603115770008849 0.7609537532570374 -0.008126094896571663
v 0.01444707067000885 0.7672157311440073 -0.008136857266571663
v 0.04343104367000885 0.7546575190070374 -0.006371076646571662
v 0.04214384597000885 0.7557164794070373 -0.010040655646571662
v 0.03691473790000885 0.7522773007070374 -0.009691282136571663
v 0.04320643007000885 0.7619586205070373 -0.013326196846571662
v 0.04006990511000885 0.7577417017870374 -0.013149226046571661
v 0.03571657930000885 0.7548866300070374 -0.012837588746571663
v 0.04037233349000885 0.7672102379798373 -0.015520825946571662
v 0.03976085223000885 0.7633532739670373 -0.015401754446571662
v 0.03050906717500885 0.7538847374070373 -0.012473636246571662
v 0.03745194711000885 0.7603926872870373 -0.015260491446571663
v 0.02530012419000885 0.7549250824070374 -0.012123880846571662
v 0.03425003099000885 0.7582906363570373 -0.015009484246571662
v 0.02649375051000885 0.7583228331070373 -0.014480602846571662
v 0.03037173330100885 0.7575437193770374 -0.014730975946571662
v 0.03577677300000885 0.7672191643714373 -0.016491134646571662
v 0.03547257930000885 0.7693196891370373 -0.016430013746571662
v 0.03546589194000885 0.7651136040270373 -0.016428354146571664
v 0.03425544314000885 0.7635833765370373 -0.016351194046571663
v 0.03248606029000885 0.7624127985870374 -0.016198894946571663
v 0.03031803906200885 0.7619923427670373 -0.016039126546571664
v 0.02815058059000885 0.7624323298270373 -0.015904798146571662
v 0.03426292702000885 0.7708528924270374 -0.01635379064657166
v 0.02329754923000885 0.7604373195170373 -0.014295871346571662
v 0.02638459764000885 0.7636108424070374 -0.01581737114657166
v 0.03746788064000885 0.7740267966870373 -0.015265334346571662
v 0.03249238315000885 0.7720259879670374 -0.016200435346571663
v 0.02100704047000885 0.7633855463970374 -0.014122319346571661
v 0.02518548816000885 0.7651326775070374 -0.015730460146571663
v 0.03426285787000885 0.7761337300770373 -0.015011466046571663
v 0.03032055916300885 0.7724534631670373 -0.01603973934657166
v 0.01783954627000885 0.7619990566770374 -0.011587110346571661
v 0.01693010797000885 0.7672171807289474 -0.011609449946571662
v 0.02039798817000885 0.7672204613682374 -0.014155717546571663
v 0.02487628767000885 0.7672246575348374 -0.01575029354657166
v 0.015602605370008849 0.7734772511770374 -0.008124538656571662
v 0.02100638957000885 0.7710543845270373 -0.014121098446571662
v 0.025184982460008852 0.7693135093470373 -0.015730085746571663
v 0.01783881247000885 0.7724355338170373 -0.011585378946571662
v 0.01930235977000885 0.7786624925070373 -0.008461968936571663
v 0.02329857182000885 0.7740084100470374 -0.014295631046571663
v 0.02638540324000885 0.7708396934870374 -0.015817961646571663
v 0.02095295027000885 0.7766431448970373 -0.011838545946571662
v 0.026494627820008852 0.7761194631470374 -0.014479832646571662
v 0.02815107885000885 0.7720159171170373 -0.01590511664657166
v 0.02530109230000885 0.7795100426070374 -0.012121510646571663
v 0.030376723444008852 0.7768942285370374 -0.014730907046571663
v 0.03051633655600885 0.7805448938070374 -0.012472458146571662
v 0.02453205921000885 0.7821132680070374 -0.008834153376571662
v 0.03573607514000885 0.7795233177070373 -0.012839463546571662
v 0.018533135770008848 0.7797190882070374 -0.004644909366571662
vt 0.24597168 0.499755859
vt 0.040435791 0.5
vt 0.0765380859 0.317871094
vt 0.179443359 0.163696289
vt 0.0766601562 0.682128906
vt 0.333496094 0.0604858398
vt 0.17956543 0.8359375
vt 0.515625 0.0240936279
vt 0.333740234 0.938964844
vt 0.515625 0.975097656
vt 0.697753906 0.938964844
vt 0.697265625 0.0601501465
vt 0.862304688 0.499755859
vt 0.852050781 0.8359375
vt 0.8515625 0.163085938
vt 0.955078125 0.681640625
vt 0.955078125 0.317382812
vt 0.991210938 0.499755859
vt 0.48046875 0.428466797
vt 0.454345703 0.437988281
vt 0.445068359 0.464111328
vt 0.428222656 0.411621094
vt 0.479003906 0.462646484
vt 0.516113281 0.461181641
vt 0.478027344 0.5
vt 0.398681641 0.450195312
vt 0.440917969 0.5
vt 0.445068359 0.535644531
vt 0.388427734 0.5
vt 0.382080078 0.365722656
vt 0.339111328 0.426025391
vt 0.442626953 0.322753906
vt 0.466552734 0.382568359
vt 0.342529297 0.325927734
vt 0.516113281 0.371826172
vt 0.516113281 0.424316406
vt 0.551757812 0.428466797
vt 0.516113281 0.307373047
vt 0.565429688 0.382324219
vt 0.323974609 0.5
vt 0.398925781 0.549804688
vt 0.268554688 0.5
vt 0.339355469 0.573730469
vt 0.287841797 0.405273438
vt 0.381835938 0.634277344
vt 0.428222656 0.587890625
vt 0.287841797 0.594238281
vt 0.254638672 0.392822266
vt 0.317138672 0.302001953
vt 0.295166016 0.281005859
vt 0.407714844 0.239379883
vt 0.235351562 0.500488281
vt 0.422119141 0.271484375
vt 0.516113281 0.251953125
vt 0.515625 0.217895508
vt 0.610351562 0.271484375
vt 0.58984375 0.322753906
vt 0.206787109 0.500976562
vt 0.255371094 0.607910156
vt 0.225952148 0.381835938
vt 0.212768555 0.375244141
vt 0.650390625 0.365478516
vt 0.689941406 0.326171875
vt 0.604003906 0.411376953
vt 0.315917969 0.700195312
vt 0.227416992 0.619628906
vt 0.190063477 0.500488281
vt 0.342041016 0.673828125
vt 0.713867188 0.30078125
vt 0.744140625 0.405273438
vt 0.623046875 0.239501953
vt 0.442382812 0.677246094
vt 0.421386719 0.728027344
vt 0.466552734 0.617675781
vt 0.480712891 0.570800781
vt 0.515625 0.692382812
vt 0.454589844 0.561523438
vt 0.516113281 0.627929688
vt 0.479248047 0.537597656
vt 0.516113281 0.538574219
vt 0.516113281 0.575195312
vt 0.551757812 0.571289062
vt 0.565917969 0.6171875
vt 0.516113281 0.500488281
vt 0.554199219 0.499755859
vt 0.553222656 0.537109375
vt 0.587402344 0.535644531
vt 0.553222656 0.462646484
vt 0.587402344 0.464111328
vt 0.577636719 0.437988281
vt 0.591308594 0.499755859
vt 0.633300781 0.449707031
vt 0.643554688 0.499511719
vt 0.692871094 0.42578125
vt 0.708007812 0.499755859
vt 0.763183594 0.5
vt 0.692382812 0.573730469
vt 0.633300781 0.549804688
vt 0.604003906 0.587890625
vt 0.578125 0.561523438
vt 0.649902344 0.634277344
vt 0.58984375 0.676757812
vt 0.689453125 0.674316406
vt 0.515625 0.747558594
vt 0.609863281 0.728027344
vt 0.516601562 0.782226562
vt 0.743164062 0.594726562
vt 0.624511719 0.760253906
vt 0.712402344 0.697265625
vt 0.732910156 0.717285156
vt 0.77734375 0.608398438
vt 0.407958984 0.760742188
vt 0.293212891 0.72265625
vt 0.396484375 0.7890625
vt 0.517578125 0.812011719
vt 0.213378906 0.625
vt 0.283447266 0.732421875
vt 0.637207031 0.787597656
vt 0.198974609 0.631347656
vt 0.390625 0.802734375
vt 0.642089844 0.802246094
vt 0.516601562 0.827636719
vt 0.384521484 0.816894531
vt 0.2734375 0.742675781
vt 0.515625 0.843261719
vt 0.259521484 0.756347656
vt 0.180786133 0.638671875
vt 0.376953125 0.834960938
vt 0.646972656 0.816894531
vt 0.745117188 0.729492188
vt 0.515625 0.862792969
vt 0.819824219 0.625488281
vt 0.758300781 0.742675781
vt 0.654785156 0.834960938
vt 0.515625 0.873535156
vt 0.372802734 0.845214844
vt 0.807128906 0.619628906
vt 0.827636719 0.499755859
vt 0.797851562 0.5
vt 0.775878906 0.391601562
vt 0.803222656 0.379882812
vt 0.843261719 0.5
vt 0.734375 0.279052734
vt 0.832519531 0.631347656
vt 0.817382812 0.374023438
vt 0.633789062 0.211791992
vt 0.74609375 0.268310547
vt 0.832519531 0.368164062
vt 0.858886719 0.5
vt 0.850585938 0.638671875
vt 0.515136719 0.188476562
vt 0.640136719 0.197387695
vt 0.878417969 0.499755859
vt 0.771972656 0.756347656
vt 0.658691406 0.845214844
vt 0.779785156 0.764160156
vt 0.515625 0.916503906
vt 0.860839844 0.643066406
vt 0.675292969 0.884765625
vt 0.810058594 0.794433594
vt 0.812011719 0.796386719
vt 0.900390625 0.659179688
vt 0.889160156 0.499755859
vt 0.850585938 0.360595703
vt 0.7578125 0.257080078
vt 0.646972656 0.182495117
vt 0.771484375 0.242919922
vt 0.860351562 0.356445312
vt 0.932128906 0.499755859
vt 0.515136719 0.172607422
vt 0.935058594 0.499755859
vt 0.900390625 0.33984375
vt 0.902832031 0.66015625
vt 0.952148438 0.680664062
vt 0.515625 0.15637207
vt 0.390136719 0.197387695
vt 0.654296875 0.164428711
vt 0.395263672 0.211669922
vt 0.284667969 0.269287109
vt 0.384521484 0.182739258
vt 0.2734375 0.257324219
vt 0.515625 0.13684082
vt 0.19909668 0.368652344
vt 0.180908203 0.361083984
vt 0.172851562 0.5
vt 0.153198242 0.5
vt 0.376953125 0.164672852
vt 0.142333984 0.5
vt 0.259521484 0.243408203
vt 0.372802734 0.154541016
vt 0.251708984 0.235717773
vt 0.170654297 0.643066406
vt 0.515625 0.125976562
vt 0.658203125 0.154418945
vt 0.515625 0.0831298828
vt 0.170654297 0.356689453
vt 0.356445312 0.114990234
vt 0.221313477 0.205444336
vt 0.219360352 0.203491211
vt 0.131103516 0.340576172
vt 0.0994873047 0.5
vt 0.779296875 0.235229492
vt 0.809570312 0.204833984
vt 0.674804688 0.114807129
vt 0.902832031 0.338867188
vt 0.811523438 0.202880859
vt 0.67578125 0.112243652
vt 0.987792969 0.499755859
vt 0.951660156 0.318847656
vt 0.515625 0.0803833008
vt 0.849121094 0.165405273
vt 0.355224609 0.112487793
vt 0.695800781 0.0632324219
vt 0.334960938 0.0635375977
vt 0.515625 0.0274047852
vt 0.991210938 0.499755859
vt 0.955078125 0.681640625
vt 0.955078125 0.317382812
vt 0.8515625 0.163085938
vt 0.697265625 0.0601501465
vt 0.515625 0.0240936279
vt 0.333496094 0.0604858398
vt 0.852050781 0.8359375
vt 0.181884766 0.166015625
vt 0.179443359 0.163696289
vt 0.849609375 0.833496094
vt 0.697753906 0.938964844
vt 0.0795898438 0.319091797
vt 0.0765380859 0.317871094
vt 0.696289062 0.936035156
vt 0.515625 0.975097656
vt 0.128540039 0.339599609
vt 0.0967407227 0.5
vt 0.0437316895 0.5
vt 0.040435791 0.5
vt 0.131103516 0.659179688
vt 0.0797119141 0.680664062
vt 0.0766601562 0.682128906
vt 0.128540039 0.660644531
vt 0.221313477 0.794433594
vt 0.181884766 0.833984375
vt 0.17956543 0.8359375
vt 0.219360352 0.796386719
vt 0.334960938 0.936035156
vt 0.333740234 0.938964844
vt 0.35546875 0.887207031
vt 0.515625 0.972167969
vt 0.515625 0.918945312
vt 0.356445312 0.884765625
vt 0.676269531 0.887207031
vt 0.251708984 0.764160156
vn -0.0674438477 -3.08156013E-05 -0.997558594
vn -0.288330078 0.000112533569 -0.957519531
vn -0.275634766 -0.0982666016 -0.956054688
vn -0.219116211 -0.174560547 -0.959960938
vn -0.275878906 0.0983276367 -0.956054688
vn -0.148071289 -0.222412109 -0.963867188
vn -0.219360352 0.174682617 -0.959960938
vn -0.0668945312 -0.238525391 -0.96875
vn -0.147949219 0.222900391 -0.963378906
vn -0.0665283203 0.239013672 -0.96875
vn 0.0153274536 0.223754883 -0.974609375
vn 0.0152130127 -0.223266602 -0.974609375
vn -0.0674438477 -3.08156013E-05 -0.997558594
vn 0.0875854492 0.17578125 -0.98046875
vn 0.0875854492 -0.17578125 -0.98046875
vn 0.145141602 0.0986938477 -0.984375
vn 0.145019531 -0.0995483398 -0.984375
vn 0.157714844 -0.000683784485 -0.987304688
vn -0.0693359375 -0.309326172 0.948242188
vn -0.201782227 -0.267089844 0.942382812
vn -0.242919922 -0.134765625 0.960449219
vn -0.229125977 -0.293945312 0.927734375
vn -0.0765991211 -0.14453125 0.986328125
vn 0.0689697266 -0.156982422 0.985351562
vn -0.088684082 -0.000130772591 0.99609375
vn -0.308349609 -0.159301758 0.937988281
vn -0.255615234 -0.000125527382 0.966796875
vn -0.243164062 0.134643555 0.960449219
vn -0.334716797 -4.7326088E-05 0.942382812
vn -0.298828125 -0.360595703 0.883789062
vn -0.407226562 -0.198120117 0.891601562
vn -0.137939453 -0.468261719 0.872558594
vn -0.095703125 -0.373046875 0.922851562
vn -0.408203125 -0.462890625 0.786621094
vn 0.0640869141 -0.399414062 0.914550781
vn 0.0663452148 -0.322265625 0.944335938
vn 0.200683594 -0.308837891 0.9296875
vn 0.0600585938 -0.509277344 0.858398438
vn 0.223144531 -0.372558594 0.900878906
vn -0.447998047 -3.1888485E-05 0.894042969
vn -0.30859375 0.159301758 0.937988281
vn -0.603027344 -3.15904617E-05 0.797851562
vn -0.407470703 0.198120117 0.891601562
vn -0.55078125 -0.252441406 0.795410156
vn -0.299560547 0.360351562 0.883300781
vn -0.229492188 0.293701172 0.927734375
vn -0.551269531 0.252441406 0.795410156
vn -0.677734375 -0.299804688 0.671386719
vn -0.508300781 -0.553222656 0.66015625
vn -0.582519531 -0.6171875 0.528808594
vn -0.255859375 -0.722167969 0.642578125
vn -0.737304688 -1.21593475E-05 0.675292969
vn -0.19934082 -0.604492188 0.771484375
vn 0.0525817871 -0.656738281 0.751953125
vn 0.0432739258 -0.782226562 0.62109375
vn 0.3046875 -0.604492188 0.735839844
vn 0.258056641 -0.468017578 0.845214844
vn -0.836914062 1.33514404E-05 0.546875
vn -0.677734375 0.299804688 0.671386719
vn -0.770996094 -0.333740234 0.542480469
vn -0.847167969 -0.361083984 0.389648438
vn 0.419433594 -0.359863281 0.833496094
vn 0.514648438 -0.462158203 0.722167969
vn 0.356201172 -0.293212891 0.887207031
vn -0.508789062 0.553222656 0.659667969
vn -0.770996094 0.334228516 0.542480469
vn -0.918945312 1.63912773E-05 0.39453125
vn -0.409179688 0.462646484 0.786621094
vn 0.595703125 -0.552734375 0.583007812
vn 0.65625 -0.252197266 0.7109375
vn 0.342529297 -0.722167969 0.600585938
vn -0.138183594 0.468505859 0.872558594
vn -0.199707031 0.604980469 0.770996094
vn -0.0958862305 0.373291016 0.922851562
vn -0.0697021484 0.309814453 0.948242188
vn 0.0597839355 0.509765625 0.858398438
vn -0.201904297 0.267578125 0.942382812
vn 0.0637817383 0.400146484 0.9140625
vn -0.076965332 0.14465332 0.986328125
vn 0.0689086914 0.157470703 0.985351562
vn 0.0659790039 0.323242188 0.943847656
vn 0.200805664 0.309814453 0.929199219
vn 0.222900391 0.373291016 0.900390625
vn 0.0697631836 7.80820847E-05 0.997558594
vn 0.22644043 -8.12411308E-05 0.974121094
vn 0.213500977 0.144775391 0.966308594
vn 0.374267578 0.134521484 0.917480469
vn 0.213134766 -0.14453125 0.966308594
vn 0.374267578 -0.134643555 0.917480469
vn 0.330810547 -0.266845703 0.905273438
vn 0.387695312 -0.000130295753 0.921875
vn 0.435791016 -0.159057617 0.885742188
vn 0.462402344 -0.000240564346 0.88671875
vn 0.52734375 -0.197753906 0.826171875
vn 0.567871094 -8.9764595E-05 0.823242188
vn 0.708007812 0.000321865082 0.706054688
vn 0.526855469 0.197875977 0.826660156
vn 0.435546875 0.158935547 0.886230469
vn 0.35546875 0.294189453 0.887207031
vn 0.330566406 0.267822266 0.904785156
vn 0.418212891 0.361083984 0.833496094
vn 0.257324219 0.46875 0.844726562
vn 0.513183594 0.463867188 0.722167969
vn 0.0523071289 0.657226562 0.751953125
vn 0.303955078 0.60546875 0.735839844
vn 0.0432434082 0.782714844 0.62109375
vn 0.655761719 0.252441406 0.711425781
vn 0.342285156 0.723144531 0.600097656
vn 0.594726562 0.554199219 0.582519531
vn 0.649902344 0.618164062 0.442626953
vn 0.764160156 0.299804688 0.571289062
vn -0.256347656 0.72265625 0.642089844
vn -0.582519531 0.617675781 0.528808594
vn -0.299804688 0.807128906 0.508789062
vn 0.0338745117 0.873535156 0.485351562
vn -0.847167969 0.361328125 0.389892578
vn -0.643066406 0.667480469 0.375488281
vn 0.3671875 0.807128906 0.462158203
vn -0.896484375 0.376953125 0.233642578
vn -0.337890625 0.872070312 0.353759766
vn 0.383544922 0.872070312 0.303466797
vn 0.0229644775 0.944335938 0.328369141
vn -0.364257812 0.909667969 0.198974609
vn -0.683105469 0.696777344 0.220092773
vn 0.0121459961 0.984863281 0.172973633
vn -0.705078125 0.707519531 0.0436706543
vn -0.921386719 0.383056641 0.0619812012
vn -0.382080078 0.923828125 0.0184631348
vn 0.388427734 0.909667969 0.146362305
vn 0.688964844 0.66796875 0.282226562
vn -0.000600814819 1 -0.00888061523
vn 0.893066406 0.361083984 0.268066406
vn 0.70703125 0.696289062 0.122802734
vn 0.381103516 0.923828125 -0.0347290039
vn -0.0171661377 0.969726562 -0.243896484
vn -0.385742188 0.897460938 -0.215087891
vn 0.838867188 0.333984375 0.429931641
vn 0.905273438 0.000215888023 0.425292969
vn 0.82421875 0.00043797493 0.56640625
vn 0.764648438 -0.299560547 0.570800781
vn 0.838867188 -0.333740234 0.4296875
vn 0.96484375 -0.000188350677 0.262451172
vn 0.650390625 -0.6171875 0.443115234
vn 0.920410156 0.376220703 0.106262207
vn 0.893066406 -0.361083984 0.267578125
vn 0.366943359 -0.806640625 0.463134766
vn 0.688964844 -0.666992188 0.282958984
vn 0.919921875 -0.376953125 0.105957031
vn 0.995117188 -0.000813484192 0.100097656
vn 0.921875 0.382080078 -0.0667724609
vn 0.0334777832 -0.873535156 0.485839844
vn 0.382568359 -0.872070312 0.3046875
vn 0.997558594 -0.00145530701 -0.0711669922
vn 0.704589844 0.707519531 -0.0546264648
vn 0.351806641 0.897460938 -0.266357422
vn 0.666503906 0.691894531 -0.27734375
vn -0.0358276367 0.860351562 -0.508300781
vn 0.883789062 0.375244141 -0.279785156
vn 0.290283203 0.798828125 -0.526855469
vn 0.570800781 0.623535156 -0.534179688
vn 0.419921875 0.493408203 -0.76171875
vn 0.772949219 0.341064453 -0.534667969
vn 0.959960938 -0.00183105469 -0.281005859
vn 0.920898438 -0.383544922 -0.0670166016
vn 0.70703125 -0.696289062 0.123474121
vn 0.386962891 -0.91015625 0.147827148
vn 0.704589844 -0.707519531 -0.054473877
vn 0.8828125 -0.377197266 -0.279785156
vn 0.843261719 -0.00188922882 -0.537597656
vn 0.0220031738 -0.944335938 0.328857422
vn 0.637207031 -0.00158500671 -0.770507812
vn 0.772460938 -0.343017578 -0.534667969
vn 0.583007812 0.272460938 -0.765625
vn 0.350830078 0.182250977 -0.918457031
vn 0.0106277466 -0.984863281 0.174072266
vn -0.338134766 -0.872070312 0.353759766
vn 0.379394531 -0.924804688 -0.0338439941
vn -0.300048828 -0.806640625 0.509277344
vn -0.643554688 -0.667480469 0.375244141
vn -0.364746094 -0.909667969 0.19921875
vn -0.68359375 -0.695800781 0.220214844
vn -0.00253868103 -1 -0.0080871582
vn -0.896484375 -0.376708984 0.233520508
vn -0.921875 -0.3828125 0.0621032715
vn -0.971191406 1.50799751E-05 0.23815918
vn -0.997558594 1.11460686E-05 0.0685424805
vn -0.3828125 -0.923828125 0.0186920166
vn -0.989257812 -1.4603138E-05 -0.145507812
vn -0.705566406 -0.70703125 0.0437927246
vn -0.386230469 -0.896972656 -0.215576172
vn -0.698730469 -0.69140625 -0.182983398
vn -0.913574219 0.376220703 -0.155029297
vn -0.0193023682 -0.969726562 -0.244140625
vn 0.350097656 -0.897949219 -0.266601562
vn -0.0378112793 -0.859863281 -0.509277344
vn -0.913574219 -0.375976562 -0.155029297
vn -0.361572266 -0.797363281 -0.483398438
vn -0.639160156 -0.622558594 -0.452148438
vn -0.520019531 -0.491455078 -0.698730469
vn -0.838867188 -0.341308594 -0.424316406
vn -0.908691406 -3.26633453E-05 -0.41796875
vn 0.666503906 -0.691894531 -0.277832031
vn 0.5703125 -0.623535156 -0.53515625
vn 0.288574219 -0.798828125 -0.527832031
vn 0.58203125 -0.273925781 -0.765625
vn 0.419433594 -0.493164062 -0.762207031
vn 0.200073242 -0.624511719 -0.754882812
vn 0.381347656 -0.00111293793 -0.924316406
vn 0.350341797 -0.18347168 -0.918457031
vn -0.0532531738 -0.670410156 -0.740234375
vn 0.240966797 -0.327392578 -0.913574219
vn -0.304443359 -0.623046875 -0.720703125
vn 0.100219727 -0.412353516 -0.905761719
vn -0.224487305 -0.410888672 -0.883789062
vn -0.0629272461 -0.44140625 -0.895019531
vn 0.157714844 -0.000683784485 -0.987304688
vn 0.145141602 0.0986938477 -0.984375
vn 0.145019531 -0.0995483398 -0.984375
vn 0.0875854492 -0.17578125 -0.98046875
vn 0.0152130127 -0.223266602 -0.974609375
vn -0.0668945312 -0.238525391 -0.96875
vn -0.148071289 -0.222412109 -0.963867188
vn 0.0875854492 0.17578125 -0.98046875
vn -0.362548828 -0.325683594 -0.873046875
vn -0.219116211 -0.174560547 -0.959960938
vn 0.241210938 0.327636719 -0.913574219
vn 0.0153274536 0.223754883 -0.974609375
vn -0.470458984 -0.181640625 -0.86328125
vn -0.275634766 -0.0982666016 -0.956054688
vn 0.100830078 0.413085938 -0.905273438
vn -0.0665283203 0.239013672 -0.96875
vn -0.680664062 -0.271972656 -0.680175781
vn -0.734863281 4.62532043E-05 -0.678222656
vn -0.501464844 0.000102877617 -0.865234375
vn -0.288330078 0.000112533569 -0.957519531
vn -0.838867188 0.341552734 -0.424316406
vn -0.470947266 0.181762695 -0.86328125
vn -0.275878906 0.0983276367 -0.956054688
vn -0.680664062 0.272216797 -0.680175781
vn -0.639160156 0.623046875 -0.451416016
vn -0.363037109 0.325927734 -0.873046875
vn -0.219360352 0.174682617 -0.959960938
vn -0.520019531 0.4921875 -0.697753906
vn -0.224243164 0.411865234 -0.883300781
vn -0.147949219 0.222900391 -0.963378906
vn -0.303955078 0.624023438 -0.719726562
vn -0.0620422363 0.442382812 -0.89453125
vn -0.0517883301 0.671386719 -0.739257812
vn -0.361083984 0.798339844 -0.482177734
vn 0.201293945 0.625 -0.75390625
vn -0.698730469 0.691894531 -0.182617188
f 3/3/3 2/2/2 1/1/1
f 1/1/1 4/4/4 3/3/3
f 2/2/2 5/5/5 1/1/1
f 6/6/6 4/4/4 1/1/1
f 1/1/1 5/5/5 7/7/7
f 1/1/1 8/8/8 6/6/6
f 7/7/7 9/9/9 1/1/1
f 1/1/1 9/9/9 10/10/10
f 1/1/1 10/10/10 11/11/11
f 13/13/13 12/12/12 8/8/8
f 11/11/11 14/14/14 13/13/13
f 15/15/15 12/12/12 13/13/13
f 13/13/13 14/14/14 16/16/16
f 13/13/13 17/17/17 15/15/15
f 16/16/16 18/18/18 13/13/13
f 18/18/18 17/17/17 13/13/13
f 21/21/21 20/20/20 19/19/19
f 19/19/19 20/20/20 22/22/22
f 22/22/22 20/20/20 21/21/21
f 23/23/23 21/21/21 19/19/19
f 23/23/23 19/19/19 24/24/24
f 23/23/23 25/25/25 21/21/21
f 23/23/23 24/24/24 25/25/25
f 26/26/26 22/22/22 21/21/21
f 25/25/25 27/27/27 21/21/21
f 27/27/27 25/25/25 28/28/28
f 21/21/21 27/27/27 29/29/29
f 26/26/26 21/21/21 29/29/29
f 27/27/27 28/28/28 29/29/29
f 30/30/30 22/22/22 26/26/26
f 26/26/26 29/29/29 31/31/31
f 31/31/31 30/30/30 26/26/26
f 22/22/22 30/30/30 32/32/32
f 33/33/33 19/19/19 22/22/22
f 33/33/33 22/22/22 32/32/32
f 34/34/34 30/30/30 31/31/31
f 32/32/32 30/30/30 34/34/34
f 33/33/33 35/35/35 19/19/19
f 19/19/19 36/36/36 24/24/24
f 35/35/35 36/36/36 19/19/19
f 36/36/36 37/37/37 24/24/24
f 36/36/36 35/35/35 37/37/37
f 38/38/38 35/35/35 33/33/33
f 32/32/32 38/38/38 33/33/33
f 35/35/35 39/39/39 37/37/37
f 35/35/35 38/38/38 39/39/39
f 29/29/29 40/40/40 31/31/31
f 29/29/29 41/41/41 40/40/40
f 28/28/28 41/41/41 29/29/29
f 31/31/31 40/40/40 42/42/42
f 41/41/41 43/43/43 40/40/40
f 40/40/40 43/43/43 42/42/42
f 44/44/44 31/31/31 42/42/42
f 44/44/44 34/34/34 31/31/31
f 45/45/45 43/43/43 41/41/41
f 46/46/46 41/41/41 28/28/28
f 46/46/46 45/45/45 41/41/41
f 43/43/43 47/47/47 42/42/42
f 47/47/47 43/43/43 45/45/45
f 44/44/44 42/42/42 48/48/48
f 49/49/49 34/34/34 44/44/44
f 48/48/48 49/49/49 44/44/44
f 50/50/50 49/49/49 48/48/48
f 34/34/34 49/49/49 51/51/51
f 51/51/51 49/49/49 50/50/50
f 42/42/42 47/47/47 52/52/52
f 42/42/42 52/52/52 48/48/48
f 53/53/53 34/34/34 51/51/51
f 53/53/53 32/32/32 34/34/34
f 53/53/53 54/54/54 32/32/32
f 54/54/54 38/38/38 32/32/32
f 55/55/55 54/54/54 53/53/53
f 51/51/51 55/55/55 53/53/53
f 54/54/54 56/56/56 38/38/38
f 54/54/54 55/55/55 56/56/56
f 56/56/56 57/57/57 38/38/38
f 38/38/38 57/57/57 39/39/39
f 48/48/48 52/52/52 58/58/58
f 47/47/47 59/59/59 52/52/52
f 52/52/52 59/59/59 58/58/58
f 60/60/60 48/48/48 58/58/58
f 60/60/60 50/50/50 48/48/48
f 60/60/60 58/58/58 61/61/61
f 60/60/60 61/61/61 50/50/50
f 39/39/39 57/57/57 62/62/62
f 57/57/57 56/56/56 63/63/63
f 62/62/62 57/57/57 63/63/63
f 64/64/64 39/39/39 62/62/62
f 37/37/37 39/39/39 64/64/64
f 65/65/65 59/59/59 47/47/47
f 59/59/59 66/66/66 58/58/58
f 66/66/66 59/59/59 65/65/65
f 58/58/58 67/67/67 61/61/61
f 58/58/58 66/66/66 67/67/67
f 68/68/68 65/65/65 47/47/47
f 68/68/68 47/47/47 45/45/45
f 63/63/63 56/56/56 69/69/69
f 63/63/63 70/70/70 62/62/62
f 63/63/63 69/69/69 70/70/70
f 56/56/56 71/71/71 69/69/69
f 55/55/55 71/71/71 56/56/56
f 45/45/45 72/72/72 68/68/68
f 68/68/68 73/73/73 65/65/65
f 72/72/72 73/73/73 68/68/68
f 74/74/74 72/72/72 45/45/45
f 46/46/46 74/74/74 45/45/45
f 75/75/75 74/74/74 46/46/46
f 76/76/76 72/72/72 74/74/74
f 73/73/73 72/72/72 76/76/76
f 77/77/77 75/75/75 46/46/46
f 77/77/77 46/46/46 28/28/28
f 77/77/77 28/28/28 75/75/75
f 78/78/78 74/74/74 75/75/75
f 78/78/78 76/76/76 74/74/74
f 28/28/28 79/79/79 75/75/75
f 75/75/75 79/79/79 80/80/80
f 25/25/25 79/79/79 28/28/28
f 80/80/80 79/79/79 25/25/25
f 81/81/81 78/78/78 75/75/75
f 81/81/81 75/75/75 80/80/80
f 78/78/78 81/81/81 82/82/82
f 82/82/82 81/81/81 80/80/80
f 76/76/76 78/78/78 83/83/83
f 83/83/83 78/78/78 82/82/82
f 84/84/84 80/80/80 25/25/25
f 80/80/80 84/84/84 85/85/85
f 24/24/24 84/84/84 25/25/25
f 84/84/84 24/24/24 85/85/85
f 86/86/86 82/82/82 80/80/80
f 86/86/86 80/80/80 85/85/85
f 86/86/86 87/87/87 82/82/82
f 86/86/86 85/85/85 87/87/87
f 24/24/24 88/88/88 85/85/85
f 85/85/85 88/88/88 89/89/89
f 37/37/37 88/88/88 24/24/24
f 89/89/89 88/88/88 37/37/37
f 90/90/90 89/89/89 37/37/37
f 90/90/90 37/37/37 64/64/64
f 90/90/90 64/64/64 89/89/89
f 85/85/85 91/91/91 87/87/87
f 91/91/91 85/85/85 89/89/89
f 64/64/64 92/92/92 89/89/89
f 64/64/64 62/62/62 92/92/92
f 91/91/91 89/89/89 93/93/93
f 87/87/87 91/91/91 93/93/93
f 89/89/89 92/92/92 93/93/93
f 62/62/62 94/94/94 92/92/92
f 70/70/70 94/94/94 62/62/62
f 92/92/92 94/94/94 95/95/95
f 93/93/93 92/92/92 95/95/95
f 95/95/95 94/94/94 96/96/96
f 94/94/94 70/70/70 96/96/96
f 93/93/93 95/95/95 97/97/97
f 97/97/97 95/95/95 96/96/96
f 98/98/98 87/87/87 93/93/93
f 98/98/98 93/93/93 97/97/97
f 98/98/98 99/99/99 87/87/87
f 99/99/99 100/100/100 87/87/87
f 87/87/87 100/100/100 82/82/82
f 82/82/82 100/100/100 99/99/99
f 83/83/83 82/82/82 99/99/99
f 101/101/101 99/99/99 98/98/98
f 97/97/97 101/101/101 98/98/98
f 83/83/83 99/99/99 102/102/102
f 99/99/99 101/101/101 102/102/102
f 102/102/102 76/76/76 83/83/83
f 103/103/103 101/101/101 97/97/97
f 102/102/102 101/101/101 103/103/103
f 104/104/104 76/76/76 102/102/102
f 104/104/104 73/73/73 76/76/76
f 105/105/105 104/104/104 102/102/102
f 105/105/105 102/102/102 103/103/103
f 104/104/104 106/106/106 73/73/73
f 106/106/106 104/104/104 105/105/105
f 107/107/107 103/103/103 97/97/97
f 107/107/107 97/97/97 96/96/96
f 105/105/105 103/103/103 108/108/108
f 108/108/108 106/106/106 105/105/105
f 109/109/109 103/103/103 107/107/107
f 103/103/103 109/109/109 108/108/108
f 108/108/108 109/109/109 110/110/110
f 111/111/111 109/109/109 107/107/107
f 107/107/107 96/96/96 111/111/111
f 110/110/110 109/109/109 111/111/111
f 106/106/106 112/112/112 73/73/73
f 73/73/73 112/112/112 65/65/65
f 65/65/65 112/112/112 113/113/113
f 113/113/113 66/66/66 65/65/65
f 114/114/114 112/112/112 106/106/106
f 112/112/112 114/114/114 113/113/113
f 115/115/115 106/106/106 108/108/108
f 115/115/115 114/114/114 106/106/106
f 116/116/116 66/66/66 113/113/113
f 66/66/66 116/116/116 67/67/67
f 113/113/113 114/114/114 117/117/117
f 117/117/117 116/116/116 113/113/113
f 118/118/118 108/108/108 110/110/110
f 118/118/118 115/115/115 108/108/108
f 67/67/67 116/116/116 119/119/119
f 119/119/119 116/116/116 117/117/117
f 120/120/120 114/114/114 115/115/115
f 114/114/114 120/120/120 117/117/117
f 118/118/118 121/121/121 115/115/115
f 118/118/118 110/110/110 121/121/121
f 122/122/122 120/120/120 115/115/115
f 121/121/121 122/122/122 115/115/115
f 117/117/117 120/120/120 123/123/123
f 123/123/123 120/120/120 122/122/122
f 124/124/124 119/119/119 117/117/117
f 124/124/124 117/117/117 123/123/123
f 125/125/125 122/122/122 121/121/121
f 125/125/125 123/123/123 122/122/122
f 124/124/124 123/123/123 126/126/126
f 127/127/127 119/119/119 124/124/124
f 126/126/126 127/127/127 124/124/124
f 123/123/123 125/125/125 128/128/128
f 123/123/123 128/128/128 126/126/126
f 129/129/129 125/125/125 121/121/121
f 110/110/110 130/130/130 121/121/121
f 121/121/121 130/130/130 129/129/129
f 125/125/125 131/131/131 128/128/128
f 125/125/125 129/129/129 131/131/131
f 132/132/132 130/130/130 110/110/110
f 130/130/130 133/133/133 129/129/129
f 133/133/133 130/130/130 132/132/132
f 129/129/129 134/134/134 131/131/131
f 129/129/129 133/133/133 134/134/134
f 128/128/128 131/131/131 135/135/135
f 131/131/131 134/134/134 135/135/135
f 126/126/126 128/128/128 136/136/136
f 136/136/136 128/128/128 135/135/135
f 137/137/137 132/132/132 110/110/110
f 137/137/137 110/110/110 111/111/111
f 137/137/137 111/111/111 138/138/138
f 137/137/137 138/138/138 132/132/132
f 111/111/111 139/139/139 138/138/138
f 96/96/96 139/139/139 111/111/111
f 96/96/96 70/70/70 139/139/139
f 70/70/70 140/140/140 139/139/139
f 139/139/139 140/140/140 138/138/138
f 69/69/69 140/140/140 70/70/70
f 140/140/140 141/141/141 138/138/138
f 141/141/141 140/140/140 69/69/69
f 138/138/138 142/142/142 132/132/132
f 138/138/138 141/141/141 142/142/142
f 143/143/143 141/141/141 69/69/69
f 69/69/69 71/71/71 143/143/143
f 132/132/132 142/142/142 144/144/144
f 144/144/144 133/133/133 132/132/132
f 145/145/145 141/141/141 143/143/143
f 141/141/141 145/145/145 142/142/142
f 71/71/71 146/146/146 143/143/143
f 146/146/146 71/71/71 55/55/55
f 147/147/147 145/145/145 143/143/143
f 143/143/143 146/146/146 147/147/147
f 142/142/142 145/145/145 148/148/148
f 148/148/148 145/145/145 147/147/147
f 142/142/142 149/149/149 144/144/144
f 149/149/149 142/142/142 148/148/148
f 144/144/144 150/150/150 133/133/133
f 144/144/144 149/149/149 150/150/150
f 151/151/151 146/146/146 55/55/55
f 151/151/151 55/55/55 51/51/51
f 146/146/146 152/152/152 147/147/147
f 152/152/152 146/146/146 151/151/151
f 149/149/149 148/148/148 153/153/153
f 149/149/149 153/153/153 150/150/150
f 150/150/150 154/154/154 133/133/133
f 133/133/133 154/154/154 134/134/134
f 134/134/134 154/154/154 155/155/155
f 134/134/134 155/155/155 135/135/135
f 156/156/156 154/154/154 150/150/150
f 154/154/154 156/156/156 155/155/155
f 157/157/157 135/135/135 155/155/155
f 135/135/135 157/157/157 136/136/136
f 150/150/150 153/153/153 158/158/158
f 158/158/158 156/156/156 150/150/150
f 155/155/155 156/156/156 159/159/159
f 159/159/159 157/157/157 155/155/155
f 160/160/160 156/156/156 158/158/158
f 156/156/156 160/160/160 159/159/159
f 159/159/159 160/160/160 161/161/161
f 162/162/162 160/160/160 158/158/158
f 161/161/161 160/160/160 162/162/162
f 153/153/153 163/163/163 158/158/158
f 158/158/158 163/163/163 162/162/162
f 153/153/153 164/164/164 163/163/163
f 148/148/148 164/164/164 153/153/153
f 164/164/164 148/148/148 165/165/165
f 165/165/165 148/148/148 147/147/147
f 165/165/165 147/147/147 166/166/166
f 147/147/147 152/152/152 166/166/166
f 167/167/167 164/164/164 165/165/165
f 165/165/165 166/166/166 167/167/167
f 164/164/164 168/168/168 163/163/163
f 168/168/168 164/164/164 167/167/167
f 163/163/163 169/169/169 162/162/162
f 163/163/163 168/168/168 169/169/169
f 166/166/166 152/152/152 170/170/170
f 170/170/170 152/152/152 151/151/151
f 162/162/162 169/169/169 171/171/171
f 168/168/168 172/172/172 169/169/169
f 169/169/169 172/172/172 171/171/171
f 173/173/173 162/162/162 171/171/171
f 173/173/173 161/161/161 162/162/162
f 173/173/173 171/171/171 174/174/174
f 173/173/173 174/174/174 161/161/161
f 175/175/175 166/166/166 170/170/170
f 176/176/176 170/170/170 151/151/151
f 175/175/175 170/170/170 176/176/176
f 166/166/166 175/175/175 177/177/177
f 166/166/166 177/177/177 167/167/167
f 178/178/178 176/176/176 151/151/151
f 178/178/178 151/151/151 51/51/51
f 178/178/178 51/51/51 50/50/50
f 178/178/178 50/50/50 176/176/176
f 50/50/50 179/179/179 176/176/176
f 61/61/61 179/179/179 50/50/50
f 180/180/180 175/175/175 176/176/176
f 176/176/176 179/179/179 180/180/180
f 181/181/181 179/179/179 61/61/61
f 179/179/179 181/181/181 180/180/180
f 175/175/175 180/180/180 182/182/182
f 175/175/175 182/182/182 177/177/177
f 183/183/183 181/181/181 61/61/61
f 183/183/183 184/184/184 181/181/181
f 61/61/61 67/67/67 183/183/183
f 67/67/67 185/185/185 183/183/183
f 183/183/183 185/185/185 184/184/184
f 185/185/185 67/67/67 119/119/119
f 185/185/185 119/119/119 186/186/186
f 185/185/185 186/186/186 184/184/184
f 119/119/119 127/127/127 186/186/186
f 180/180/180 181/181/181 187/187/187
f 180/180/180 187/187/187 182/182/182
f 186/186/186 127/127/127 188/188/188
f 184/184/184 186/186/186 188/188/188
f 181/181/181 189/189/189 187/187/187
f 184/184/184 189/189/189 181/181/181
f 182/182/182 187/187/187 190/190/190
f 187/187/187 189/189/189 190/190/190
f 191/191/191 189/189/189 184/184/184
f 189/189/189 191/191/191 190/190/190
f 127/127/127 192/192/192 188/188/188
f 192/192/192 127/127/127 126/126/126
f 193/193/193 182/182/182 190/190/190
f 177/177/177 182/182/182 193/193/193
f 194/194/194 177/177/177 193/193/193
f 167/167/167 177/177/177 194/194/194
f 195/195/195 193/193/193 190/190/190
f 193/193/193 195/195/195 194/194/194
f 196/196/196 191/191/191 184/184/184
f 196/196/196 184/184/184 188/188/188
f 190/190/190 191/191/191 197/197/197
f 197/197/197 195/195/195 190/190/190
f 198/198/198 191/191/191 196/196/196
f 191/191/191 198/198/198 197/197/197
f 197/197/197 198/198/198 199/199/199
f 200/200/200 198/198/198 196/196/196
f 196/196/196 188/188/188 200/200/200
f 199/199/199 198/198/198 200/200/200
f 188/188/188 192/192/192 201/201/201
f 188/188/188 201/201/201 200/200/200
f 202/202/202 167/167/167 194/194/194
f 202/202/202 168/168/168 167/167/167
f 202/202/202 203/203/203 168/168/168
f 202/202/202 194/194/194 203/203/203
f 203/203/203 172/172/172 168/168/168
f 195/195/195 204/204/204 194/194/194
f 194/194/194 204/204/204 203/203/203
f 205/205/205 172/172/172 203/203/203
f 172/172/172 205/205/205 171/171/171
f 203/203/203 204/204/204 206/206/206
f 206/206/206 205/205/205 203/203/203
f 207/207/207 204/204/204 195/195/195
f 204/204/204 207/207/207 206/206/206
f 171/171/171 205/205/205 208/208/208
f 171/171/171 208/208/208 174/174/174
f 209/209/209 205/205/205 206/206/206
f 205/205/205 209/209/209 208/208/208
f 210/210/210 207/207/207 195/195/195
f 210/210/210 195/195/195 197/197/197
f 206/206/206 207/207/207 211/211/211
f 211/211/211 209/209/209 206/206/206
f 212/212/212 210/210/210 197/197/197
f 212/212/212 197/197/197 199/199/199
f 213/213/213 207/207/207 210/210/210
f 207/207/207 213/213/213 211/211/211
f 212/212/212 214/214/214 210/210/210
f 212/212/212 199/199/199 214/214/214
f 215/215/215 213/213/213 210/210/210
f 214/214/214 215/215/215 210/210/210
f 208/208/208 209/209/209 216/216/216
f 208/208/208 216/216/216 217/217/217
f 209/209/209 218/218/218 216/216/216
f 218/218/218 209/209/209 211/211/211
f 219/219/219 218/218/218 211/211/211
f 211/211/211 213/213/213 219/219/219
f 213/213/213 220/220/220 219/219/219
f 220/220/220 213/213/213 215/215/215
f 221/221/221 220/220/220 215/215/215
f 221/221/221 215/215/215 214/214/214
f 174/174/174 208/208/208 217/217/217
f 222/222/222 221/221/221 214/214/214
f 217/217/217 223/223/223 174/174/174
f 214/214/214 224/224/224 222/222/222
f 224/224/224 225/225/225 222/222/222
f 199/199/199 224/224/224 214/214/214
f 223/223/223 226/226/226 174/174/174
f 226/226/226 223/223/223 227/227/227
f 174/174/174 226/226/226 161/161/161
f 225/225/225 224/224/224 228/228/228
f 228/228/228 224/224/224 199/199/199
f 229/229/229 225/225/225 228/228/228
f 230/230/230 226/226/226 227/227/227
f 161/161/161 226/226/226 230/230/230
f 227/227/227 231/231/231 230/230/230
f 232/232/232 228/228/228 199/199/199
f 232/232/232 199/199/199 200/200/200
f 232/232/232 200/200/200 233/233/233
f 232/232/232 233/233/233 228/228/228
f 200/200/200 201/201/201 233/233/233
f 228/228/228 234/234/234 229/229/229
f 233/233/233 234/234/234 228/228/228
f 234/234/234 235/235/235 229/229/229
f 201/201/201 236/236/236 233/233/233
f 192/192/192 236/236/236 201/201/201
f 234/234/234 237/237/237 235/235/235
f 237/237/237 238/238/238 235/235/235
f 233/233/233 239/239/239 234/234/234
f 236/236/236 239/239/239 233/233/233
f 239/239/239 237/237/237 234/234/234
f 240/240/240 236/236/236 192/192/192
f 239/239/239 236/236/236 240/240/240
f 238/238/238 237/237/237 241/241/241
f 242/242/242 238/238/238 241/241/241
f 237/237/237 239/239/239 243/243/243
f 243/243/243 239/239/239 240/240/240
f 241/241/241 237/237/237 243/243/243
f 241/241/241 244/244/244 242/242/242
f 244/244/244 245/245/245 242/242/242
f 243/243/243 246/246/246 241/241/241
f 246/246/246 244/244/244 241/241/241
f 245/245/245 244/244/244 247/247/247
f 231/231/231 245/245/245 247/247/247
f 231/231/231 247/247/247 230/230/230
f 247/247/247 244/244/244 248/248/248
f 230/230/230 247/247/247 248/248/248
f 244/244/244 246/246/246 248/248/248
f 249/249/249 246/246/246 243/243/243
f 240/240/240 249/249/249 243/243/243
f 246/246/246 249/249/249 157/157/157
f 248/248/248 246/246/246 157/157/157
f 157/157/157 249/249/249 136/136/136
f 136/136/136 249/249/249 240/240/240
f 248/248/248 157/157/157 159/159/159
f 250/250/250 230/230/230 248/248/248
f 250/250/250 248/248/248 159/159/159
f 250/250/250 161/161/161 230/230/230
f 250/250/250 159/159/159 161/161/161
f 251/251/251 136/136/136 240/240/240
f 251/251/251 240/240/240 192/192/192
f 251/251/251 126/126/126 136/136/136
f 251/251/251 192/192/192 126/126/126
# PF_Eyes_R
v -0.03033846442100885 0.7672261071202373 -0.01654720394657166
v -0.02518548816000885 0.7651326775070374 -0.015730460146571663
v -0.02487628767000885 0.7672246575348374 -0.01575029354657166
v -0.02638459764000885 0.7636108424070374 -0.01581737114657166
v -0.025184982460008852 0.7693135093470373 -0.015730085746571663
v -0.02815058059000885 0.7624323298270373 -0.015904798146571662
v -0.02638540324000885 0.7708396934870374 -0.015817961646571663
v -0.03031803906200885 0.7619923427670373 -0.016039126546571664
v -0.02815107885000885 0.7720159171170373 -0.01590511664657166
v -0.03032055916300885 0.7724534631670373 -0.01603973934657166
v -0.03249238315000885 0.7720259879670374 -0.016200435346571663
v -0.03033846442100885 0.7672261071202373 -0.01654720394657166
v -0.03248606029000885 0.7624127985870374 -0.016198894946571663
v -0.03426292702000885 0.7708528924270374 -0.01635379064657166
v -0.03425544314000885 0.7635833765370373 -0.016351194046571663
v -0.03547257930000885 0.7693196891370373 -0.016430013746571662
v -0.03546589194000885 0.7651136040270373 -0.016428354146571664
v -0.03577677300000885 0.7672191643714373 -0.016491134646571662
v -0.030498519540008852 0.7633322931370373 0.01600751565342834
v -0.02863382176000885 0.7652008843170374 0.016136883753428338
v -0.029056940690008852 0.7637717463070374 0.015905004953428337
v -0.02771004988000885 0.7624811576670374 0.015189134553428338
v -0.03048966947200885 0.7651670097870373 0.01643887445342834
v -0.03253448068000885 0.7651100945670374 0.01645099465342834
v -0.03044197143800885 0.7672211480139374 0.016597644453428338
v -0.02629934158000885 0.7645861078070374 0.015333634853428337
v -0.02843174990000885 0.7672191643714373 0.016238584253428338
v -0.02863296098000885 0.7692375970070373 0.01613720235342834
v -0.02579349093000885 0.7672187066073374 0.015398143853428338
v -0.02569687692000885 0.7605501580970373 0.014073206153428337
v -0.02364809113000885 0.7636228967470373 0.014257037153428338
v -0.02878279518000885 0.7584902979470374 0.013897966653428337
v -0.02982474153000885 0.7610613275270374 0.015087734953428338
v -0.02386228181000885 0.7588242366870374 0.012561794453428338
v -0.03243124066000885 0.7605516840670373 0.014934305153428338
v -0.03250091127000885 0.7631278252270374 0.01595486235342834
v -0.03449425986000885 0.7633382440570373 0.01572783385342834
v -0.03234444675000885 0.7577879363670373 0.013672346253428337
v -0.03504074155000885 0.7610622430170374 0.014722744053428338
v -0.02629869990000885 0.7698491692970374 0.015333784753428338
v -0.02294817008000885 0.7672177147860574 0.014328969653428338
v -0.020384000570008852 0.7672170281412074 0.012813733953428337
v -0.02364739496000885 0.7708059714670373 0.014256881553428337
v -0.02128853183000885 0.7626613643970374 0.012746545553428338
v -0.02569058491000885 0.7738766502570373 0.014073265753428339
v -0.02770520048000885 0.7719481680570374 0.015189503353428337
v -0.02128806151000885 0.7717629265970374 0.012746583753428338
v -0.01921520757000885 0.7618638635570374 0.010758993253428337
v -0.022233310160008853 0.7573415404170374 0.010549792153428338
v -0.020874319570008848 0.7561559323070374 0.008156593923428337
v -0.02675161650000885 0.7543089325070373 0.010233201153428339
v -0.018152658870008852 0.7672171807289474 0.010833742153428338
v -0.02770744148000885 0.7562412284070373 0.012298694853428337
v -0.032226429554008854 0.7553356197070373 0.011986173753428338
v -0.03207552968500885 0.7532458519070373 0.009861032513428339
v -0.03675576020000885 0.7562410766070373 0.011666012953428338
v -0.03591309348000885 0.7584912897970374 0.013399950253428338
v -0.01630720127000885 0.7672177910799274 0.008475903453428338
v -0.019214843370008852 0.7725611901870374 0.010758721353428338
v -0.01749400147000885 0.7612335993870374 0.008392953353428339
v -0.01606674217000885 0.7607231163370374 0.005673098413428338
v -0.03897890123000885 0.7605503872070374 0.013144866553428338
v -0.040584750470008854 0.7588231684670373 0.011393045153428337
v -0.03713959036000885 0.7624811576670374 0.014529744153428338
v -0.022230189290008848 0.7770811486970374 0.010549024753428338
v -0.017494270570008852 0.7731948113070374 0.008392773603428338
v -0.014780111570008851 0.7672183251379473 0.005762848573428338
v -0.02385636186000885 0.7756012743370374 0.012561404153428338
v -0.04191334727000885 0.7573373438770373 0.009175640563428338
v -0.04315443987000885 0.7626601434270374 0.011218294553428338
v -0.03740610182000885 0.7543084742070374 0.009489170313428337
v -0.02876134217000885 0.7759324666070374 0.013899539653428338
v -0.02768528042000885 0.7781790942070373 0.012299625253428337
v -0.02981012163000885 0.7733650994470374 0.015088864653428338
v -0.03049254952900885 0.7710942863470374 0.016008473053428337
v -0.03233246622000885 0.7766352100270374 0.013673874553428337
v -0.02905375068000885 0.7706613945770373 0.015905694153428337
v -0.03242458159000885 0.7738756583970373 0.014935744953428337
v -0.03048770013300885 0.7692762017270374 0.016439124053428338
v -0.03253382025000885 0.7693367791370374 0.016451223753428338
v -0.03249841032000885 0.7713076043870374 0.015955883153428337
v -0.03449269105000885 0.7710941338470374 0.015728854653428336
v -0.03503670986000885 0.7733652517170374 0.014724044153428338
v -0.03254672105000885 0.7672260308263373 0.016631855653428337
v -0.03462717100000885 0.7672209954262373 0.016304933453428337
v -0.03455885942000885 0.7692762017270374 0.01615443365342834
v -0.03635373153000885 0.7692375970070373 0.015597345353428337
v -0.03455946967000885 0.7651679255070374 0.016154133753428338
v -0.03635401046000885 0.7652010370470373 0.015597063153428337
v -0.03590462031000885 0.7637735772870373 0.015426055553428337
v -0.03656764096000885 0.7672191643714373 0.015669674653428337
v -0.03855341952000885 0.7645859552970373 0.014476874853428337
v -0.03906245995000885 0.7672191643714373 0.014470805453428338
v -0.04102880508000885 0.7636229731170373 0.013042022553428338
v -0.04172930307000885 0.7672197747224374 0.013017407653428337
v -0.04405597227000885 0.7672193169592374 0.011161734353428338
v -0.04101399425000885 0.7708187890270374 0.013052195353428338
v -0.03854939993000885 0.7698520682770373 0.014479934253428337
v -0.03713756148000885 0.7719496940270374 0.014530934453428337
v -0.03590405034000885 0.7706615470770374 0.015426754053428337
v -0.03897250211000885 0.7738828300470374 0.013147741553428337
v -0.03590446291000885 0.7759332293670373 0.013401461753428337
v -0.04057568125000885 0.7756101246970374 0.011397613253428338
v -0.03221237001700885 0.7790839411070374 0.011988924853428338
v -0.03674451169000885 0.7781798579070374 0.011668514453428338
v -0.03206466493400885 0.7811729452070374 0.009862756393428337
v -0.04313158057000885 0.7717833733170374 0.011237184553428337
v -0.03739728732000885 0.7801108574070373 0.009490097913428338
v -0.041908555670008854 0.7770887017270374 0.009177729523428338
v -0.04292245857000885 0.7782691214070373 0.006617923773428337
v -0.04491211007000885 0.7725843833770374 0.008979928713428337
v -0.02673744736000885 0.7801100947070374 0.010233477753428338
v -0.02087408117000885 0.7782651540070373 0.008156223263428337
v -0.02593242936000885 0.7816619128070373 0.007802743963428338
v -0.03189431963300885 0.7828498091070374 0.007387053723428337
v -0.01606699077000885 0.7737091849570373 0.005673057433428338
v -0.01973735917000885 0.7792087579070374 0.0054164408134283375
v -0.04599030507000885 0.7672165703770574 0.008890756443428337
v -0.04492924267000885 0.7618589806370374 0.008962584693428338
v -0.04748970087000885 0.7672129082679974 0.006299183743428338
v -0.04630164147000885 0.7612226130470373 0.0063811336034283375
v -0.02522816276000885 0.7828903217070373 0.005032205063428338
v -0.015154492070008851 0.7740055108470374 0.0026768739734283377
v -0.04629263937000885 0.7732128165670373 0.006395693903428337
v -0.04733452757000885 0.7737163566070373 0.0034968976734283375
v -0.04291973167000885 0.7561449455070374 0.006619073483428338
v -0.04862393807000885 0.7672098565101374 0.003399503223428338
v -0.03786329087000885 0.7527535278070373 0.006971353703428338
v -0.047331819270008846 0.7607039669570373 0.003491222893428338
v -0.04365766047000885 0.7551926449070373 0.0037510816834283377
v -0.03189955052200885 0.7515688352070373 0.0073860339234283374
v -0.04781253827000885 0.7604016903770373 0.0003993541544283377
v -0.03817115119000885 0.7515187096070374 0.004132371433428338
v -0.02593697142000885 0.7527570371070373 0.007802523713428338
v -0.02522867266000885 0.7515296210070374 0.005032679103428338
v -0.03170144377500885 0.7502397951070373 0.004580827463428337
v -0.03824389027000885 0.7508068103070373 0.0010698042234283376
v -0.043974500170008854 0.7546425657070374 0.0006712041574283377
v -0.01973708157000885 0.7552149994070374 0.005416968403428338
v -0.03148700058200885 0.7494765501070374 0.0015375240834283378
v -0.02472367138000885 0.7508266475070373 0.002008154093428338
v -0.01898694127000885 0.7546768980070373 0.0024089841534283376
v -0.01515444177000885 0.7604291560170373 0.0026768842134283375
v -0.01461053637000885 0.7602933528870374 -0.0005634389455716623
v -0.013808261570008851 0.7672187066073374 0.0027709841134283377
v -0.013230983170008849 0.7672185540195674 -0.0004688286785716623
v -0.03814582853000885 0.7504573855070373 -0.0022084971065716623
v -0.03125634729871885 0.7491025571070373 -0.0017332731165716623
v -0.02435865486000885 0.7504848503070374 -0.0012530799365716623
v -0.01850350107000885 0.7544180322070374 -0.0008420310555716623
v -0.02424838627000885 0.7508863099070373 -0.005054525996571663
v -0.04399359687000885 0.7543761469070374 -0.002612908336571662
v -0.03098821701100885 0.7495371271070373 -0.005525057166571663
v -0.03772059502000885 0.7508523595070373 -0.005986225286571663
v -0.01853329507000885 0.7547058128070373 -0.004646453036571662
v -0.03072527708700885 0.7510828432070373 -0.009267467966571663
v -0.04789379057000885 0.7602600883670374 -0.0028829592865716623
v -0.02453099797000885 0.7523142267070374 -0.008836959456571663
v -0.01466206837000885 0.7604315211070374 -0.004326894846571662
v -0.01930252187000885 0.7557682060070373 -0.008464353126571662
v -0.020952476170008852 0.7577953366570374 -0.011840239146571662
v -0.013333629770008851 0.7672172570228174 -0.0042770825865716625
v -0.015603115770008849 0.7609537532570374 -0.008126094896571663
v -0.014610540170008849 0.7741392538870373 -0.0005633515175716623
v -0.018987130370008848 0.7797492240070374 0.002408874023428338
v -0.02472445089000885 0.7835936751070374 0.0020078241734283377
v -0.018503581170008852 0.7800061060070373 -0.0008417939755716623
v -0.014661863470008848 0.7739989492070374 -0.004326138606571662
v -0.01444707067000885 0.7672157311440073 -0.008136857266571663
v -0.03170103370200885 0.7841809094070373 0.004580034443428338
v -0.01693010797000885 0.7672171807289474 -0.011609449946571662
v -0.015602605370008849 0.7734772511770374 -0.008124538656571662
v -0.01783954627000885 0.7619990566770374 -0.011587110346571661
v -0.02100704047000885 0.7633855463970374 -0.014122319346571661
v -0.03149079142900885 0.7849448416070374 0.0015348241834283378
v -0.03817611281000885 0.7828902453070373 0.004127886643428337
v -0.024360056500008852 0.7839345578070374 -0.0012533353465716624
v -0.03786007920000885 0.7816619128070373 0.006970403753428338
v -0.04366951997000885 0.7792101307070374 0.003744984083428338
v -0.03825764917000885 0.7835935224070374 0.0010617841434283376
v -0.04399549957000885 0.7797486139070373 0.0006606341704283377
v -0.03126318752765885 0.7853147145070374 -0.0017366950265716623
v -0.03816616349000885 0.7839340232070373 -0.0022184364165716624
v -0.03099689306700885 0.7848792281070374 -0.005526543556571662
v -0.02424972132000885 0.7835350819070374 -0.0050529972265716625
v -0.04782588037000885 0.7740013906770373 0.0003948941664283377
v -0.04916843027000885 0.7672064995765574 0.0003008941494283377
v -0.04791420507000885 0.7741330740970374 -0.0028903449065716623
v -0.04928621277000885 0.7672022271158273 -0.002986841096571662
v -0.04402239807000885 0.7800047323070374 -0.002625834856571662
v -0.03774500405000885 0.7835366838070373 -0.005993453746571662
v -0.04346432727000885 0.7797208428070374 -0.006382469986571662
v -0.047342538870008846 0.7739955922570374 -0.006602851636571662
v -0.04865675417000885 0.7671985650067373 -0.0067355725565716625
v -0.03073397936500885 0.7833386250070373 -0.009266871926571663
v -0.03693868453000885 0.7821193719070374 -0.009695106146571663
v -0.04217565057000885 0.7786703510070374 -0.010049398046571663
v -0.04009490553000885 0.7766603874070374 -0.013155666146571663
v -0.04589121327000885 0.7734784721370374 -0.010225975846571662
v -0.04731840637000885 0.7603932213970374 -0.0065947197965716626
v -0.04702814107000885 0.7671979546548373 -0.010394427846571663
v -0.04343104367000885 0.7546575190070374 -0.006371076646571662
v -0.04214384597000885 0.7557164794070373 -0.010040655646571662
v -0.04586787707000885 0.7609130884570373 -0.010218566246571663
v -0.04412055017000885 0.7672026085856474 -0.013477342146571663
v -0.04322545607000885 0.7724430868370373 -0.013331990646571663
v -0.03691473790000885 0.7522773007070374 -0.009691282136571663
v -0.04320643007000885 0.7619586205070373 -0.013326196846571662
v -0.03977389168000885 0.7710628532770374 -0.015405573846571662
v -0.04006990511000885 0.7577417017870374 -0.013149226046571661
v -0.03571657930000885 0.7548866300070374 -0.012837588746571663
v -0.04037233349000885 0.7672102379798373 -0.015520825946571662
v -0.03976085223000885 0.7633532739670373 -0.015401754446571662
v -0.03050906717500885 0.7538847374070373 -0.012473636246571662
v -0.03745194711000885 0.7603926872870373 -0.015260491446571663
v -0.02530012419000885 0.7549250824070374 -0.012123880846571662
v -0.02649375051000885 0.7583228331070373 -0.014480602846571662
v -0.03425003099000885 0.7582906363570373 -0.015009484246571662
v -0.02329754923000885 0.7604373195170373 -0.014295871346571662
v -0.03037173330100885 0.7575437193770374 -0.014730975946571662
v -0.03577677300000885 0.7672191643714373 -0.016491134646571662
v -0.03547257930000885 0.7693196891370373 -0.016430013746571662
v -0.03546589194000885 0.7651136040270373 -0.016428354146571664
v -0.03425544314000885 0.7635833765370373 -0.016351194046571663
v -0.03248606029000885 0.7624127985870374 -0.016198894946571663
v -0.03031803906200885 0.7619923427670373 -0.016039126546571664
v -0.02815058059000885 0.7624323298270373 -0.015904798146571662
v -0.02638459764000885 0.7636108424070374 -0.01581737114657166
v -0.03426292702000885 0.7708528924270374 -0.01635379064657166
v -0.02518548816000885 0.7651326775070374 -0.015730460146571663
v -0.03746788064000885 0.7740267966870373 -0.015265334346571662
v -0.03249238315000885 0.7720259879670374 -0.016200435346571663
v -0.02039798817000885 0.7672204613682374 -0.014155717546571663
v -0.02487628767000885 0.7672246575348374 -0.01575029354657166
v -0.03426285787000885 0.7761337300770373 -0.015011466046571663
v -0.03032055916300885 0.7724534631670373 -0.01603973934657166
v -0.02100638957000885 0.7710543845270373 -0.014121098446571662
v -0.025184982460008852 0.7693135093470373 -0.015730085746571663
v -0.01783881247000885 0.7724355338170373 -0.011585378946571662
v -0.02329857182000885 0.7740084100470374 -0.014295631046571663
v -0.02638540324000885 0.7708396934870374 -0.015817961646571663
v -0.01930235977000885 0.7786624925070373 -0.008461968936571663
v -0.02095295027000885 0.7766431448970373 -0.011838545946571662
v -0.026494627820008852 0.7761194631470374 -0.014479832646571662
v -0.02815107885000885 0.7720159171170373 -0.01590511664657166
v -0.030376723444008852 0.7768942285370374 -0.014730907046571663
v -0.02530109230000885 0.7795100426070374 -0.012121510646571663
v -0.03051633655600885 0.7805448938070374 -0.012472458146571662
v -0.02453205921000885 0.7821132680070374 -0.008834153376571662
v -0.018533135770008848 0.7797190882070374 -0.004644909366571662
v -0.03573607514000885 0.7795233177070373 -0.012839463546571662
vt 0.24597168 0.499755859
vt 0.0765380859 0.317871094
vt 0.040435791 0.5
vt 0.179443359 0.163696289
vt 0.0766601562 0.682128906
vt 0.333496094 0.0604858398
vt 0.17956543 0.8359375
vt 0.515625 0.0240936279
vt 0.333740234 0.938964844
vt 0.515625 0.975097656
vt 0.697753906 0.938964844
vt 0.862304688 0.499755859
vt 0.697265625 0.0601501465
vt 0.852050781 0.8359375
vt 0.8515625 0.163085938
vt 0.955078125 0.681640625
vt 0.955078125 0.317382812
vt 0.991210938 0.499755859
vt 0.48046875 0.428466797
vt 0.445068359 0.464111328
vt 0.454345703 0.437988281
vt 0.428222656 0.411621094
vt 0.479003906 0.462646484
vt 0.516113281 0.461181641
vt 0.478027344 0.5
vt 0.398681641 0.450195312
vt 0.440917969 0.5
vt 0.445068359 0.535644531
vt 0.388427734 0.5
vt 0.382080078 0.365722656
vt 0.339111328 0.426025391
vt 0.442626953 0.322753906
vt 0.466552734 0.382568359
vt 0.342529297 0.325927734
vt 0.516113281 0.371826172
vt 0.516113281 0.424316406
vt 0.551757812 0.428466797
vt 0.516113281 0.307373047
vt 0.565429688 0.382324219
vt 0.398925781 0.549804688
vt 0.323974609 0.5
vt 0.268554688 0.5
vt 0.339355469 0.573730469
vt 0.287841797 0.405273438
vt 0.381835938 0.634277344
vt 0.428222656 0.587890625
vt 0.287841797 0.594238281
vt 0.254638672 0.392822266
vt 0.317138672 0.302001953
vt 0.295166016 0.281005859
vt 0.407714844 0.239379883
vt 0.235351562 0.500488281
vt 0.422119141 0.271484375
vt 0.516113281 0.251953125
vt 0.515625 0.217895508
vt 0.610351562 0.271484375
vt 0.58984375 0.322753906
vt 0.206787109 0.500976562
vt 0.255371094 0.607910156
vt 0.225952148 0.381835938
vt 0.212768555 0.375244141
vt 0.650390625 0.365478516
vt 0.689941406 0.326171875
vt 0.604003906 0.411376953
vt 0.315917969 0.700195312
vt 0.227416992 0.619628906
vt 0.190063477 0.500488281
vt 0.342041016 0.673828125
vt 0.713867188 0.30078125
vt 0.744140625 0.405273438
vt 0.623046875 0.239501953
vt 0.442382812 0.677246094
vt 0.421386719 0.728027344
vt 0.466552734 0.617675781
vt 0.480712891 0.570800781
vt 0.515625 0.692382812
vt 0.454589844 0.561523438
vt 0.516113281 0.627929688
vt 0.479248047 0.537597656
vt 0.516113281 0.538574219
vt 0.516113281 0.575195312
vt 0.551757812 0.571289062
vt 0.565917969 0.6171875
vt 0.516113281 0.500488281
vt 0.554199219 0.499755859
vt 0.553222656 0.537109375
vt 0.587402344 0.535644531
vt 0.553222656 0.462646484
vt 0.587402344 0.464111328
vt 0.577636719 0.437988281
vt 0.591308594 0.499755859
vt 0.633300781 0.449707031
vt 0.643554688 0.499511719
vt 0.692871094 0.42578125
vt 0.708007812 0.499755859
vt 0.763183594 0.5
vt 0.692382812 0.573730469
vt 0.633300781 0.549804688
vt 0.604003906 0.587890625
vt 0.578125 0.561523438
vt 0.649902344 0.634277344
vt 0.58984375 0.676757812
vt 0.689453125 0.674316406
vt 0.515625 0.747558594
vt 0.609863281 0.728027344
vt 0.516601562 0.782226562
vt 0.743164062 0.594726562
vt 0.624511719 0.760253906
vt 0.712402344 0.697265625
vt 0.732910156 0.717285156
vt 0.77734375 0.608398438
vt 0.407958984 0.760742188
vt 0.293212891 0.72265625
vt 0.396484375 0.7890625
vt 0.517578125 0.812011719
vt 0.213378906 0.625
vt 0.283447266 0.732421875
vt 0.797851562 0.5
vt 0.775878906 0.391601562
vt 0.827636719 0.499755859
vt 0.803222656 0.379882812
vt 0.390625 0.802734375
vt 0.198974609 0.631347656
vt 0.807128906 0.619628906
vt 0.819824219 0.625488281
vt 0.734375 0.279052734
vt 0.843261719 0.5
vt 0.633789062 0.211791992
vt 0.817382812 0.374023438
vt 0.74609375 0.268310547
vt 0.515136719 0.188476562
vt 0.832519531 0.368164062
vt 0.640136719 0.197387695
vt 0.395263672 0.211669922
vt 0.390136719 0.197387695
vt 0.515136719 0.172607422
vt 0.646972656 0.182495117
vt 0.7578125 0.257080078
vt 0.284667969 0.269287109
vt 0.515625 0.15637207
vt 0.384521484 0.182739258
vt 0.2734375 0.257324219
vt 0.19909668 0.368652344
vt 0.180908203 0.361083984
vt 0.172851562 0.5
vt 0.153198242 0.5
vt 0.654296875 0.164428711
vt 0.515625 0.13684082
vt 0.376953125 0.164672852
vt 0.259521484 0.243408203
vt 0.372802734 0.154541016
vt 0.771484375 0.242919922
vt 0.515625 0.125976562
vt 0.658203125 0.154418945
vt 0.251708984 0.235717773
vt 0.515625 0.0831298828
vt 0.850585938 0.360595703
vt 0.356445312 0.114990234
vt 0.170654297 0.356689453
vt 0.221313477 0.205444336
vt 0.219360352 0.203491211
vt 0.142333984 0.5
vt 0.131103516 0.340576172
vt 0.180786133 0.638671875
vt 0.2734375 0.742675781
vt 0.384521484 0.816894531
vt 0.259521484 0.756347656
vt 0.170654297 0.643066406
vt 0.0994873047 0.5
vt 0.516601562 0.827636719
vt 0.0967407227 0.5
vt 0.131103516 0.659179688
vt 0.128540039 0.339599609
vt 0.0795898438 0.319091797
vt 0.515625 0.843261719
vt 0.642089844 0.802246094
vt 0.376953125 0.834960938
vt 0.637207031 0.787597656
vt 0.745117188 0.729492188
vt 0.646972656 0.816894531
vt 0.758300781 0.742675781
vt 0.515625 0.862792969
vt 0.654785156 0.834960938
vt 0.515625 0.873535156
vt 0.372802734 0.845214844
vt 0.832519531 0.631347656
vt 0.858886719 0.5
vt 0.850585938 0.638671875
vt 0.878417969 0.499755859
vt 0.771972656 0.756347656
vt 0.658691406 0.845214844
vt 0.779785156 0.764160156
vt 0.860839844 0.643066406
vt 0.889160156 0.499755859
vt 0.515625 0.916503906
vt 0.675292969 0.884765625
vt 0.810058594 0.794433594
vt 0.812011719 0.796386719
vt 0.900390625 0.659179688
vt 0.860351562 0.356445312
vt 0.932128906 0.499755859
vt 0.779296875 0.235229492
vt 0.809570312 0.204833984
vt 0.900390625 0.33984375
vt 0.935058594 0.499755859
vt 0.902832031 0.66015625
vt 0.674804688 0.114807129
vt 0.902832031 0.338867188
vt 0.952148438 0.680664062
vt 0.811523438 0.202880859
vt 0.67578125 0.112243652
vt 0.987792969 0.499755859
vt 0.951660156 0.318847656
vt 0.515625 0.0803833008
vt 0.849121094 0.165405273
vt 0.355224609 0.112487793
vt 0.334960938 0.0635375977
vt 0.695800781 0.0632324219
vt 0.181884766 0.166015625
vt 0.515625 0.0274047852
vt 0.991210938 0.499755859
vt 0.955078125 0.681640625
vt 0.955078125 0.317382812
vt 0.8515625 0.163085938
vt 0.697265625 0.0601501465
vt 0.515625 0.0240936279
vt 0.333496094 0.0604858398
vt 0.179443359 0.163696289
vt 0.852050781 0.8359375
vt 0.0765380859 0.317871094
vt 0.849609375 0.833496094
vt 0.697753906 0.938964844
vt 0.0437316895 0.5
vt 0.040435791 0.5
vt 0.696289062 0.936035156
vt 0.515625 0.975097656
vt 0.0797119141 0.680664062
vt 0.0766601562 0.682128906
vt 0.128540039 0.660644531
vt 0.181884766 0.833984375
vt 0.17956543 0.8359375
vt 0.221313477 0.794433594
vt 0.219360352 0.796386719
vt 0.334960938 0.936035156
vt 0.333740234 0.938964844
vt 0.515625 0.972167969
vt 0.35546875 0.887207031
vt 0.515625 0.918945312
vt 0.356445312 0.884765625
vt 0.251708984 0.764160156
vt 0.676269531 0.887207031
vn 0.0674438477 -3.12328339E-05 -0.997558594
vn 0.275634766 -0.0982666016 -0.956054688
vn 0.288330078 0.000111937523 -0.957519531
vn 0.219116211 -0.174560547 -0.959960938
vn 0.275878906 0.0983276367 -0.956054688
vn 0.148071289 -0.222412109 -0.963867188
vn 0.219360352 0.174682617 -0.959960938
vn 0.0668945312 -0.238525391 -0.96875
vn 0.147949219 0.222900391 -0.963378906
vn 0.0665283203 0.239013672 -0.96875
vn -0.0153274536 0.223754883 -0.974609375
vn 0.0674438477 -3.12328339E-05 -0.997558594
vn -0.0152130127 -0.223266602 -0.974609375
vn -0.0875854492 0.17578125 -0.98046875
vn -0.0875854492 -0.17578125 -0.98046875
vn -0.145141602 0.0986938477 -0.984375
vn -0.145019531 -0.0995483398 -0.984375
vn -0.157714844 -0.000683784485 -0.987304688
vn 0.0693359375 -0.309326172 0.948242188
vn 0.242919922 -0.134765625 0.960449219
vn 0.201782227 -0.267089844 0.942382812
vn 0.229125977 -0.293945312 0.927734375
vn 0.0765991211 -0.14440918 0.986328125
vn -0.0689697266 -0.156982422 0.985351562
vn 0.088684082 -0.000129938126 0.99609375
vn 0.308349609 -0.159301758 0.937988281
vn 0.255615234 -0.000125646591 0.966796875
vn 0.243164062 0.134643555 0.960449219
vn 0.334716797 -4.77433205E-05 0.942382812
vn 0.298828125 -0.360595703 0.883789062
vn 0.407226562 -0.198120117 0.891601562
vn 0.137939453 -0.468261719 0.872558594
vn 0.095703125 -0.373046875 0.922851562
vn 0.408203125 -0.462890625 0.786621094
vn -0.0640869141 -0.399414062 0.914550781
vn -0.0663452148 -0.322265625 0.944335938
vn -0.200683594 -0.308837891 0.9296875
vn -0.0600585938 -0.509277344 0.858398438
vn -0.223144531 -0.372558594 0.900878906
vn 0.30859375 0.159301758 0.937988281
vn 0.447998047 -3.23057175E-05 0.894042969
vn 0.603027344 -3.16500664E-05 0.797851562
vn 0.407470703 0.198120117 0.891601562
vn 0.55078125 -0.252441406 0.795410156
vn 0.299560547 0.360351562 0.883300781
vn 0.229492188 0.293701172 0.927734375
vn 0.551269531 0.252441406 0.795410156
vn 0.677734375 -0.299804688 0.671386719
vn 0.508300781 -0.553222656 0.66015625
vn 0.582519531 -0.6171875 0.528808594
vn 0.255859375 -0.722167969 0.642578125
vn 0.737304688 -1.20997429E-05 0.675292969
vn 0.19934082 -0.604492188 0.771484375
vn -0.0525817871 -0.656738281 0.751953125
vn -0.0432739258 -0.782226562 0.62109375
vn -0.3046875 -0.604492188 0.735839844
vn -0.258056641 -0.468017578 0.845214844
vn 0.836914062 1.33514404E-05 0.546875
vn 0.677734375 0.299804688 0.671386719
vn 0.770996094 -0.333740234 0.542480469
vn 0.847167969 -0.361083984 0.389648438
vn -0.419433594 -0.359863281 0.833496094
vn -0.514648438 -0.462158203 0.722167969
vn -0.356201172 -0.293212891 0.887207031
vn 0.508789062 0.553222656 0.659667969
vn 0.770996094 0.334228516 0.542480469
vn 0.918945312 1.63912773E-05 0.39453125
vn 0.409179688 0.462646484 0.786621094
vn -0.595703125 -0.552734375 0.583007812
vn -0.65625 -0.252197266 0.7109375
vn -0.342529297 -0.722167969 0.600585938
vn 0.138183594 0.468505859 0.872558594
vn 0.199707031 0.604980469 0.770996094
vn 0.0958862305 0.373291016 0.922851562
vn 0.0697021484 0.309814453 0.948242188
vn -0.0597839355 0.509765625 0.858398438
vn 0.201904297 0.267578125 0.942382812
vn -0.0637817383 0.400146484 0.9140625
vn 0.076965332 0.14465332 0.986328125
vn -0.0689086914 0.157470703 0.985351562
vn -0.0659790039 0.323242188 0.943847656
vn -0.200805664 0.309814453 0.929199219
vn -0.222900391 0.373291016 0.900390625
vn -0.0697631836 7.86781311E-05 0.997558594
vn -0.22644043 -8.06450844E-05 0.974121094
vn -0.213500977 0.144775391 0.966308594
vn -0.374267578 0.134521484 0.917480469
vn -0.213134766 -0.14453125 0.966308594
vn -0.374267578 -0.134643555 0.917480469
vn -0.330810547 -0.266845703 0.905273438
vn -0.387695312 -0.000129342079 0.921875
vn -0.435791016 -0.159057617 0.885742188
vn -0.462402344 -0.0002399683 0.88671875
vn -0.52734375 -0.197753906 0.826171875
vn -0.567871094 -8.93473625E-05 0.823242188
vn -0.708007812 0.000321865082 0.706054688
vn -0.526855469 0.197875977 0.826660156
vn -0.435546875 0.158935547 0.886230469
vn -0.35546875 0.294189453 0.887207031
vn -0.330566406 0.267822266 0.904785156
vn -0.418212891 0.361083984 0.833496094
vn -0.257324219 0.46875 0.844726562
vn -0.513183594 0.463867188 0.722167969
vn -0.0523071289 0.657226562 0.751953125
vn -0.303955078 0.60546875 0.735839844
vn -0.0432434082 0.782714844 0.62109375
vn -0.655761719 0.252441406 0.711425781
vn -0.342285156 0.723144531 0.600097656
vn -0.594726562 0.554199219 0.582519531
vn -0.649902344 0.618164062 0.442626953
vn -0.764160156 0.299804688 0.571289062
vn 0.256347656 0.72265625 0.642089844
vn 0.582519531 0.617675781 0.528808594
vn 0.299804688 0.807128906 0.508789062
vn -0.0338745117 0.873535156 0.485595703
vn 0.847167969 0.361328125 0.389892578
vn 0.643066406 0.667480469 0.375488281
vn -0.82421875 0.00043797493 0.56640625
vn -0.764648438 -0.299560547 0.570800781
vn -0.905273438 0.000216126442 0.425292969
vn -0.838867188 -0.333740234 0.4296875
vn 0.337890625 0.872070312 0.353759766
vn 0.896484375 0.376953125 0.233642578
vn -0.838867188 0.333984375 0.429931641
vn -0.893066406 0.361083984 0.268066406
vn -0.650390625 -0.6171875 0.443115234
vn -0.96484375 -0.000188350677 0.262451172
vn -0.366943359 -0.806640625 0.463134766
vn -0.893066406 -0.361083984 0.267578125
vn -0.688964844 -0.666992188 0.282958984
vn -0.0334472656 -0.873535156 0.485839844
vn -0.919921875 -0.376953125 0.105957031
vn -0.382568359 -0.872070312 0.3046875
vn 0.300048828 -0.806640625 0.509277344
vn 0.338134766 -0.872070312 0.353759766
vn -0.0220031738 -0.944335938 0.328857422
vn -0.386962891 -0.91015625 0.147827148
vn -0.70703125 -0.696289062 0.123474121
vn 0.643554688 -0.667480469 0.375244141
vn -0.0106277466 -0.984863281 0.174072266
vn 0.364746094 -0.909667969 0.19921875
vn 0.68359375 -0.695800781 0.220214844
vn 0.896484375 -0.376708984 0.233520508
vn 0.921875 -0.3828125 0.0621032715
vn 0.971191406 1.50799751E-05 0.23815918
vn 0.997558594 1.12056732E-05 0.0685424805
vn -0.379394531 -0.924804688 -0.0338439941
vn 0.00253868103 -1 -0.0080871582
vn 0.3828125 -0.923828125 0.0186920166
vn 0.705566406 -0.70703125 0.0437927246
vn 0.386230469 -0.896972656 -0.215576172
vn -0.704589844 -0.707519531 -0.054473877
vn 0.0193023682 -0.969726562 -0.244140625
vn -0.350097656 -0.897949219 -0.266601562
vn 0.698730469 -0.69140625 -0.182983398
vn 0.0378112793 -0.859863281 -0.509277344
vn -0.920898438 -0.383544922 -0.0670166016
vn 0.361572266 -0.797363281 -0.483398438
vn 0.913574219 -0.375976562 -0.155029297
vn 0.639160156 -0.622558594 -0.452148438
vn 0.520019531 -0.491455078 -0.698730469
vn 0.989257812 -1.4603138E-05 -0.145507812
vn 0.838867188 -0.341308594 -0.424316406
vn 0.921386719 0.383056641 0.0619812012
vn 0.683105469 0.696777344 0.220092773
vn 0.364257812 0.909667969 0.198974609
vn 0.705078125 0.707519531 0.0436706543
vn 0.913574219 0.376220703 -0.155029297
vn 0.908691406 -3.28421593E-05 -0.41796875
vn -0.0229644775 0.944335938 0.328369141
vn 0.734863281 4.60147858E-05 -0.678222656
vn 0.838867188 0.341552734 -0.424316406
vn 0.680664062 -0.271972656 -0.680175781
vn 0.470458984 -0.181640625 -0.86328125
vn -0.0121459961 0.984863281 0.172973633
vn -0.383544922 0.872070312 0.303466797
vn 0.382080078 0.923828125 0.0184783936
vn -0.3671875 0.807128906 0.462158203
vn -0.688964844 0.66796875 0.282226562
vn -0.388427734 0.909667969 0.146362305
vn -0.70703125 0.696289062 0.122802734
vn 0.000601291656 1 -0.00887298584
vn -0.381103516 0.923828125 -0.0347290039
vn 0.0171661377 0.969726562 -0.243896484
vn 0.385742188 0.897460938 -0.215087891
vn -0.920410156 0.376220703 0.106262207
vn -0.995117188 -0.000813484192 0.100097656
vn -0.921875 0.382080078 -0.0667724609
vn -0.997558594 -0.00145530701 -0.0711669922
vn -0.704589844 0.707519531 -0.0546264648
vn -0.351806641 0.897460938 -0.266357422
vn -0.666503906 0.691894531 -0.27734375
vn -0.883789062 0.375244141 -0.279785156
vn -0.959960938 -0.00183105469 -0.281005859
vn 0.0358276367 0.860351562 -0.508300781
vn -0.290283203 0.798828125 -0.526855469
vn -0.570800781 0.623535156 -0.534179688
vn -0.419921875 0.493408203 -0.76171875
vn -0.772949219 0.341064453 -0.534667969
vn -0.8828125 -0.377197266 -0.279785156
vn -0.843261719 -0.00188922882 -0.537597656
vn -0.666503906 -0.691894531 -0.277832031
vn -0.5703125 -0.623535156 -0.53515625
vn -0.772460938 -0.343017578 -0.534667969
vn -0.637207031 -0.00158500671 -0.770507812
vn -0.583007812 0.272460938 -0.765625
vn -0.288574219 -0.798828125 -0.527832031
vn -0.58203125 -0.273925781 -0.765625
vn -0.350830078 0.182250977 -0.918457031
vn -0.419433594 -0.493164062 -0.762207031
vn -0.200073242 -0.624511719 -0.754882812
vn -0.381347656 -0.00111293793 -0.924316406
vn -0.350341797 -0.18347168 -0.918457031
vn 0.0532531738 -0.670410156 -0.740234375
vn -0.240966797 -0.327392578 -0.913574219
vn 0.304443359 -0.623046875 -0.720703125
vn 0.224487305 -0.410888672 -0.883789062
vn -0.100219727 -0.412353516 -0.905761719
vn 0.362548828 -0.325683594 -0.873046875
vn 0.0629272461 -0.44140625 -0.895019531
vn -0.157714844 -0.000683784485 -0.987304688
vn -0.145141602 0.0986938477 -0.984375
vn -0.145019531 -0.0995483398 -0.984375
vn -0.0875854492 -0.17578125 -0.98046875
vn -0.0152130127 -0.223266602 -0.974609375
vn 0.0668945312 -0.238525391 -0.96875
vn 0.148071289 -0.222412109 -0.963867188
vn 0.219116211 -0.174560547 -0.959960938
vn -0.0875854492 0.17578125 -0.98046875
vn 0.275634766 -0.0982666016 -0.956054688
vn -0.241210938 0.327636719 -0.913574219
vn -0.0153274536 0.223754883 -0.974609375
vn 0.501464844 0.000102639198 -0.865234375
vn 0.288330078 0.000111937523 -0.957519531
vn -0.100830078 0.413085938 -0.905273438
vn 0.0665283203 0.239013672 -0.96875
vn 0.470947266 0.181762695 -0.86328125
vn 0.275878906 0.0983276367 -0.956054688
vn 0.680664062 0.272216797 -0.680175781
vn 0.363037109 0.325927734 -0.873046875
vn 0.219360352 0.174682617 -0.959960938
vn 0.639160156 0.623046875 -0.451416016
vn 0.520019531 0.4921875 -0.697753906
vn 0.224243164 0.411865234 -0.883300781
vn 0.147949219 0.222900391 -0.963378906
vn 0.0620422363 0.442382812 -0.89453125
vn 0.303955078 0.624023438 -0.719726562
vn 0.0517883301 0.671386719 -0.739257812
vn 0.361083984 0.798339844 -0.482177734
vn 0.698730469 0.691894531 -0.182617188
vn -0.201293945 0.625 -0.75390625
f 254/254/254 253/253/253 252/252/252
f 255/255/255 252/252/252 253/253/253
f 256/256/256 254/254/254 252/252/252
f 255/255/255 257/257/257 252/252/252
f 256/256/256 252/252/252 258/258/258
f 259/259/259 252/252/252 257/257/257
f 260/260/260 258/258/258 252/252/252
f 260/260/260 252/252/252 261/261/261
f 261/261/261 252/252/252 262/262/262
f 264/264/264 263/263/263 259/259/259
f 265/265/265 262/262/262 263/263/263
f 264/264/264 266/266/266 263/263/263
f 265/265/265 263/263/263 267/267/267
f 268/268/268 263/263/263 266/266/266
f 269/269/269 267/267/267 263/263/263
f 268/268/268 269/269/269 263/263/263
f 272/272/272 271/271/271 270/270/270
f 272/272/272 270/270/270 273/273/273
f 272/272/272 273/273/273 271/271/271
f 271/271/271 274/274/274 270/270/270
f 270/270/270 274/274/274 275/275/275
f 276/276/276 274/274/274 271/271/271
f 275/275/275 274/274/274 276/276/276
f 273/273/273 277/277/277 271/271/271
f 278/278/278 276/276/276 271/271/271
f 276/276/276 278/278/278 279/279/279
f 278/278/278 271/271/271 280/280/280
f 271/271/271 277/277/277 280/280/280
f 279/279/279 278/278/278 280/280/280
f 273/273/273 281/281/281 277/277/277
f 280/280/280 277/277/277 282/282/282
f 281/281/281 282/282/282 277/277/277
f 281/281/281 273/273/273 283/283/283
f 270/270/270 284/284/284 273/273/273
f 273/273/273 284/284/284 283/283/283
f 281/281/281 285/285/285 282/282/282
f 281/281/281 283/283/283 285/285/285
f 286/286/286 284/284/284 270/270/270
f 287/287/287 270/270/270 275/275/275
f 287/287/287 286/286/286 270/270/270
f 288/288/288 287/287/287 275/275/275
f 286/286/286 287/287/287 288/288/288
f 286/286/286 289/289/289 284/284/284
f 289/289/289 283/283/283 284/284/284
f 290/290/290 286/286/286 288/288/288
f 289/289/289 286/286/286 290/290/290
f 291/291/291 279/279/279 280/280/280
f 292/292/292 280/280/280 282/282/282
f 291/291/291 280/280/280 292/292/292
f 292/292/292 282/282/282 293/293/293
f 294/294/294 291/291/291 292/292/292
f 294/294/294 292/292/292 293/293/293
f 282/282/282 295/295/295 293/293/293
f 285/285/285 295/295/295 282/282/282
f 294/294/294 296/296/296 291/291/291
f 291/291/291 297/297/297 279/279/279
f 296/296/296 297/297/297 291/291/291
f 298/298/298 294/294/294 293/293/293
f 294/294/294 298/298/298 296/296/296
f 293/293/293 295/295/295 299/299/299
f 285/285/285 300/300/300 295/295/295
f 300/300/300 299/299/299 295/295/295
f 300/300/300 301/301/301 299/299/299
f 300/300/300 285/285/285 302/302/302
f 300/300/300 302/302/302 301/301/301
f 298/298/298 293/293/293 303/303/303
f 303/303/303 293/293/293 299/299/299
f 285/285/285 304/304/304 302/302/302
f 283/283/283 304/304/304 285/285/285
f 305/305/305 304/304/304 283/283/283
f 289/289/289 305/305/305 283/283/283
f 305/305/305 306/306/306 304/304/304
f 306/306/306 302/302/302 304/304/304
f 307/307/307 305/305/305 289/289/289
f 306/306/306 305/305/305 307/307/307
f 308/308/308 307/307/307 289/289/289
f 308/308/308 289/289/289 290/290/290
f 303/303/303 299/299/299 309/309/309
f 310/310/310 298/298/298 303/303/303
f 310/310/310 303/303/303 309/309/309
f 299/299/299 311/311/311 309/309/309
f 301/301/301 311/311/311 299/299/299
f 309/309/309 311/311/311 312/312/312
f 312/312/312 311/311/311 301/301/301
f 308/308/308 290/290/290 313/313/313
f 307/307/307 308/308/308 314/314/314
f 308/308/308 313/313/313 314/314/314
f 290/290/290 315/315/315 313/313/313
f 290/290/290 288/288/288 315/315/315
f 310/310/310 316/316/316 298/298/298
f 317/317/317 310/310/310 309/309/309
f 310/310/310 317/317/317 316/316/316
f 318/318/318 309/309/309 312/312/312
f 317/317/317 309/309/309 318/318/318
f 316/316/316 319/319/319 298/298/298
f 298/298/298 319/319/319 296/296/296
f 307/307/307 314/314/314 320/320/320
f 321/321/321 314/314/314 313/313/313
f 320/320/320 314/314/314 321/321/321
f 322/322/322 307/307/307 320/320/320
f 322/322/322 306/306/306 307/307/307
f 323/323/323 296/296/296 319/319/319
f 324/324/324 319/319/319 316/316/316
f 324/324/324 323/323/323 319/319/319
f 323/323/323 325/325/325 296/296/296
f 325/325/325 297/297/297 296/296/296
f 325/325/325 326/326/326 297/297/297
f 323/323/323 327/327/327 325/325/325
f 323/323/323 324/324/324 327/327/327
f 326/326/326 328/328/328 297/297/297
f 297/297/297 328/328/328 279/279/279
f 279/279/279 328/328/328 326/326/326
f 325/325/325 329/329/329 326/326/326
f 327/327/327 329/329/329 325/325/325
f 330/330/330 279/279/279 326/326/326
f 330/330/330 326/326/326 331/331/331
f 330/330/330 276/276/276 279/279/279
f 330/330/330 331/331/331 276/276/276
f 329/329/329 332/332/332 326/326/326
f 326/326/326 332/332/332 331/331/331
f 332/332/332 329/329/329 333/333/333
f 332/332/332 333/333/333 331/331/331
f 329/329/329 327/327/327 334/334/334
f 329/329/329 334/334/334 333/333/333
f 331/331/331 335/335/335 276/276/276
f 335/335/335 331/331/331 336/336/336
f 335/335/335 275/275/275 276/276/276
f 275/275/275 335/335/335 336/336/336
f 333/333/333 337/337/337 331/331/331
f 331/331/331 337/337/337 336/336/336
f 338/338/338 337/337/337 333/333/333
f 336/336/336 337/337/337 338/338/338
f 339/339/339 275/275/275 336/336/336
f 339/339/339 336/336/336 340/340/340
f 339/339/339 288/288/288 275/275/275
f 339/339/339 340/340/340 288/288/288
f 340/340/340 341/341/341 288/288/288
f 288/288/288 341/341/341 315/315/315
f 315/315/315 341/341/341 340/340/340
f 342/342/342 336/336/336 338/338/338
f 336/336/336 342/342/342 340/340/340
f 343/343/343 315/315/315 340/340/340
f 313/313/313 315/315/315 343/343/343
f 340/340/340 342/342/342 344/344/344
f 342/342/342 338/338/338 344/344/344
f 343/343/343 340/340/340 344/344/344
f 345/345/345 313/313/313 343/343/343
f 345/345/345 321/321/321 313/313/313
f 345/345/345 343/343/343 346/346/346
f 343/343/343 344/344/344 346/346/346
f 345/345/345 346/346/346 347/347/347
f 321/321/321 345/345/345 347/347/347
f 346/346/346 344/344/344 348/348/348
f 346/346/346 348/348/348 347/347/347
f 338/338/338 349/349/349 344/344/344
f 344/344/344 349/349/349 348/348/348
f 350/350/350 349/349/349 338/338/338
f 351/351/351 350/350/350 338/338/338
f 351/351/351 338/338/338 333/333/333
f 351/351/351 333/333/333 350/350/350
f 333/333/333 334/334/334 350/350/350
f 350/350/350 352/352/352 349/349/349
f 352/352/352 348/348/348 349/349/349
f 350/350/350 334/334/334 353/353/353
f 352/352/352 350/350/350 353/353/353
f 327/327/327 353/353/353 334/334/334
f 352/352/352 354/354/354 348/348/348
f 352/352/352 353/353/353 354/354/354
f 327/327/327 355/355/355 353/353/353
f 324/324/324 355/355/355 327/327/327
f 355/355/355 356/356/356 353/353/353
f 353/353/353 356/356/356 354/354/354
f 357/357/357 355/355/355 324/324/324
f 355/355/355 357/357/357 356/356/356
f 354/354/354 358/358/358 348/348/348
f 348/348/348 358/358/358 347/347/347
f 354/354/354 356/356/356 359/359/359
f 357/357/357 359/359/359 356/356/356
f 354/354/354 360/360/360 358/358/358
f 360/360/360 354/354/354 359/359/359
f 360/360/360 359/359/359 361/361/361
f 360/360/360 362/362/362 358/358/358
f 347/347/347 358/358/358 362/362/362
f 360/360/360 361/361/361 362/362/362
f 363/363/363 357/357/357 324/324/324
f 363/363/363 324/324/324 316/316/316
f 363/363/363 316/316/316 364/364/364
f 317/317/317 364/364/364 316/316/316
f 363/363/363 365/365/365 357/357/357
f 365/365/365 363/363/363 364/364/364
f 357/357/357 366/366/366 359/359/359
f 365/365/365 366/366/366 357/357/357
f 317/317/317 367/367/367 364/364/364
f 367/367/367 317/317/317 318/318/318
f 365/365/365 364/364/364 368/368/368
f 367/367/367 368/368/368 364/364/364
f 369/369/369 347/347/347 362/362/362
f 321/321/321 347/347/347 369/369/369
f 370/370/370 321/321/321 369/369/369
f 370/370/370 320/320/320 321/321/321
f 369/369/369 362/362/362 371/371/371
f 370/370/370 369/369/369 371/371/371
f 370/370/370 372/372/372 320/320/320
f 372/372/372 370/370/370 371/371/371
f 365/365/365 373/373/373 366/366/366
f 373/373/373 365/365/365 368/368/368
f 367/367/367 318/318/318 374/374/374
f 367/367/367 374/374/374 368/368/368
f 362/362/362 375/375/375 371/371/371
f 361/361/361 375/375/375 362/362/362
f 371/371/371 375/375/375 376/376/376
f 376/376/376 375/375/375 361/361/361
f 372/372/372 377/377/377 320/320/320
f 322/322/322 320/320/320 377/377/377
f 372/372/372 371/371/371 378/378/378
f 378/378/378 371/371/371 376/376/376
f 379/379/379 322/322/322 377/377/377
f 322/322/322 379/379/379 306/306/306
f 372/372/372 380/380/380 377/377/377
f 380/380/380 372/372/372 378/378/378
f 380/380/380 381/381/381 377/377/377
f 379/379/379 377/377/377 381/381/381
f 379/379/379 382/382/382 306/306/306
f 306/306/306 382/382/382 302/302/302
f 380/380/380 378/378/378 383/383/383
f 380/380/380 383/383/383 381/381/381
f 379/379/379 384/384/384 382/382/382
f 384/384/384 379/379/379 381/381/381
f 382/382/382 385/385/385 302/302/302
f 302/302/302 385/385/385 301/301/301
f 386/386/386 385/385/385 382/382/382
f 301/301/301 385/385/385 386/386/386
f 384/384/384 387/387/387 382/382/382
f 387/387/387 386/386/386 382/382/382
f 384/384/384 381/381/381 388/388/388
f 384/384/384 388/388/388 387/387/387
f 383/383/383 389/389/389 381/381/381
f 381/381/381 389/389/389 388/388/388
f 390/390/390 301/301/301 386/386/386
f 390/390/390 312/312/312 301/301/301
f 387/387/387 391/391/391 386/386/386
f 388/388/388 391/391/391 387/387/387
f 390/390/390 386/386/386 392/392/392
f 391/391/391 392/392/392 386/386/386
f 390/390/390 393/393/393 312/312/312
f 393/393/393 390/390/390 392/392/392
f 393/393/393 394/394/394 312/312/312
f 395/395/395 394/394/394 393/393/393
f 318/318/318 312/312/312 394/394/394
f 396/396/396 318/318/318 394/394/394
f 396/396/396 394/394/394 395/395/395
f 318/318/318 396/396/396 374/374/374
f 397/397/397 396/396/396 395/395/395
f 374/374/374 396/396/396 397/397/397
f 391/391/391 388/388/388 398/398/398
f 392/392/392 391/391/391 399/399/399
f 399/399/399 391/391/391 398/398/398
f 393/393/393 392/392/392 400/400/400
f 400/400/400 392/392/392 399/399/399
f 401/401/401 393/393/393 400/400/400
f 401/401/401 395/395/395 393/393/393
f 400/400/400 399/399/399 402/402/402
f 401/401/401 400/400/400 402/402/402
f 398/398/398 388/388/388 403/403/403
f 388/388/388 389/389/389 403/403/403
f 399/399/399 398/398/398 404/404/404
f 399/399/399 404/404/404 402/402/402
f 398/398/398 405/405/405 404/404/404
f 398/398/398 403/403/403 405/405/405
f 401/401/401 406/406/406 395/395/395
f 406/406/406 401/401/401 402/402/402
f 404/404/404 407/407/407 402/402/402
f 407/407/407 404/404/404 405/405/405
f 408/408/408 403/403/403 389/389/389
f 383/383/383 408/408/408 389/389/389
f 406/406/406 402/402/402 409/409/409
f 407/407/407 409/409/409 402/402/402
f 406/406/406 410/410/410 395/395/395
f 411/411/411 406/406/406 409/409/409
f 406/406/406 411/411/411 410/410/410
f 411/411/411 409/409/409 412/412/412
f 395/395/395 410/410/410 413/413/413
f 397/397/397 395/395/395 413/413/413
f 411/411/411 414/414/414 410/410/410
f 411/411/411 412/412/412 414/414/414
f 413/413/413 410/410/410 414/414/414
f 415/415/415 397/397/397 413/413/413
f 415/415/415 374/374/374 397/397/397
f 374/374/374 415/415/415 416/416/416
f 374/374/374 416/416/416 368/368/368
f 368/368/368 416/416/416 417/417/417
f 373/373/373 368/368/368 417/417/417
f 415/415/415 418/418/418 416/416/416
f 417/417/417 416/416/416 418/418/418
f 419/419/419 415/415/415 413/413/413
f 415/415/415 419/419/419 418/418/418
f 420/420/420 413/413/413 414/414/414
f 419/419/419 413/413/413 420/420/420
f 373/373/373 417/417/417 421/421/421
f 373/373/373 421/421/421 366/366/366
f 420/420/420 414/414/414 422/422/422
f 423/423/423 419/419/419 420/420/420
f 423/423/423 420/420/420 422/422/422
f 414/414/414 424/424/424 422/422/422
f 412/412/412 424/424/424 414/414/414
f 422/422/422 424/424/424 425/425/425
f 425/425/425 424/424/424 412/412/412
f 417/417/417 426/426/426 421/421/421
f 421/421/421 427/427/427 366/366/366
f 421/421/421 426/426/426 427/427/427
f 426/426/426 417/417/417 428/428/428
f 428/428/428 417/417/417 418/418/418
f 427/427/427 429/429/429 366/366/366
f 366/366/366 429/429/429 359/359/359
f 359/359/359 429/429/429 361/361/361
f 361/361/361 429/429/429 427/427/427
f 430/430/430 361/361/361 427/427/427
f 430/430/430 376/376/376 361/361/361
f 426/426/426 431/431/431 427/427/427
f 430/430/430 427/427/427 431/431/431
f 430/430/430 432/432/432 376/376/376
f 432/432/432 430/430/430 431/431/431
f 431/431/431 426/426/426 433/433/433
f 433/433/433 426/426/426 428/428/428
f 434/434/434 431/431/431 433/433/433
f 432/432/432 431/431/431 434/434/434
f 433/433/433 428/428/428 435/435/435
f 434/434/434 433/433/433 435/435/435
f 428/428/428 418/418/418 436/436/436
f 428/428/428 436/436/436 435/435/435
f 432/432/432 437/437/437 376/376/376
f 378/378/378 376/376/376 437/437/437
f 438/438/438 378/378/378 437/437/437
f 378/378/378 438/438/438 383/383/383
f 439/439/439 437/437/437 432/432/432
f 438/438/438 437/437/437 439/439/439
f 383/383/383 438/438/438 440/440/440
f 440/440/440 438/438/438 439/439/439
f 408/408/408 383/383/383 440/440/440
f 441/441/441 432/432/432 434/434/434
f 441/441/441 439/439/439 432/432/432
f 442/442/442 434/434/434 435/435/435
f 441/441/441 434/434/434 442/442/442
f 441/441/441 443/443/443 439/439/439
f 443/443/443 441/441/441 442/442/442
f 440/440/440 439/439/439 444/444/444
f 443/443/443 444/444/444 439/439/439
f 408/408/408 440/440/440 445/445/445
f 445/445/445 440/440/440 444/444/444
f 435/435/435 446/446/446 442/442/442
f 446/446/446 435/435/435 436/436/436
f 443/443/443 442/442/442 447/447/447
f 446/446/446 447/447/447 442/442/442
f 443/443/443 448/448/448 444/444/444
f 448/448/448 443/443/443 447/447/447
f 448/448/448 447/447/447 449/449/449
f 448/448/448 450/450/450 444/444/444
f 445/445/445 444/444/444 450/450/450
f 448/448/448 449/449/449 450/450/450
f 451/451/451 408/408/408 445/445/445
f 408/408/408 451/451/451 403/403/403
f 452/452/452 445/445/445 450/450/450
f 451/451/451 445/445/445 452/452/452
f 451/451/451 453/453/453 403/403/403
f 403/403/403 453/453/453 405/405/405
f 454/454/454 453/453/453 451/451/451
f 405/405/405 453/453/453 454/454/454
f 455/455/455 451/451/451 452/452/452
f 455/455/455 454/454/454 451/451/451
f 452/452/452 450/450/450 456/456/456
f 455/455/455 452/452/452 456/456/456
f 449/449/449 457/457/457 450/450/450
f 450/450/450 457/457/457 456/456/456
f 458/458/458 405/405/405 454/454/454
f 458/458/458 407/407/407 405/405/405
f 455/455/455 459/459/459 454/454/454
f 459/459/459 455/455/455 456/456/456
f 456/456/456 457/457/457 460/460/460
f 460/460/460 457/457/457 449/449/449
f 458/458/458 454/454/454 461/461/461
f 459/459/459 461/461/461 454/454/454
f 458/458/458 462/462/462 407/407/407
f 462/462/462 458/458/458 461/461/461
f 459/459/459 456/456/456 463/463/463
f 463/463/463 456/456/456 460/460/460
f 459/459/459 464/464/464 461/461/461
f 464/464/464 459/459/459 463/463/463
f 462/462/462 465/465/465 407/407/407
f 407/407/407 465/465/465 409/409/409
f 462/462/462 461/461/461 466/466/466
f 464/464/464 466/466/466 461/461/461
f 465/465/465 467/467/467 409/409/409
f 409/409/409 467/467/467 412/412/412
f 412/412/412 467/467/467 468/468/468
f 468/468/468 467/467/467 465/465/465
f 462/462/462 469/469/469 465/465/465
f 469/469/469 462/462/462 466/466/466
f 470/470/470 412/412/412 468/468/468
f 470/470/470 425/425/425 412/412/412
f 471/471/471 468/468/468 465/465/465
f 469/469/469 471/471/471 465/465/465
f 464/464/464 463/463/463 472/472/472
f 472/472/472 463/463/463 473/473/473
f 474/474/474 464/464/464 472/472/472
f 464/464/464 474/474/474 466/466/466
f 474/474/474 475/475/475 466/466/466
f 469/469/469 466/466/466 475/475/475
f 476/476/476 469/469/469 475/475/475
f 469/469/469 476/476/476 471/471/471
f 476/476/476 477/477/477 471/471/471
f 471/471/471 477/477/477 468/468/468
f 477/477/477 478/478/478 468/468/468
f 470/470/470 468/468/468 478/478/478
f 479/479/479 470/470/470 478/478/478
f 463/463/463 460/460/460 473/473/473
f 470/470/470 479/479/479 425/425/425
f 480/480/480 473/473/473 460/460/460
f 479/479/479 481/481/481 425/425/425
f 482/482/482 480/480/480 460/460/460
f 480/480/480 482/482/482 483/483/483
f 482/482/482 460/460/460 449/449/449
f 484/484/484 425/425/425 481/481/481
f 485/485/485 484/484/484 481/481/481
f 484/484/484 422/422/422 425/425/425
f 482/482/482 486/486/486 483/483/483
f 482/482/482 449/449/449 486/486/486
f 487/487/487 483/483/483 486/486/486
f 488/488/488 484/484/484 485/485/485
f 489/489/489 488/488/488 485/485/485
f 490/490/490 422/422/422 484/484/484
f 488/488/488 490/490/490 484/484/484
f 490/490/490 423/423/423 422/422/422
f 488/488/488 489/489/489 491/491/491
f 489/489/489 492/492/492 491/491/491
f 423/423/423 490/490/490 493/493/493
f 423/423/423 493/493/493 419/419/419
f 490/490/490 488/488/488 494/494/494
f 488/488/488 491/491/491 494/494/494
f 490/490/490 494/494/494 493/493/493
f 495/495/495 491/491/491 492/492/492
f 496/496/496 495/495/495 492/492/492
f 496/496/496 487/487/487 497/497/497
f 495/495/495 496/496/496 497/497/497
f 497/497/497 487/487/487 486/486/486
f 498/498/498 494/494/494 491/491/491
f 495/495/495 498/498/498 491/491/491
f 495/495/495 497/497/497 499/499/499
f 497/497/497 486/486/486 499/499/499
f 498/498/498 495/495/495 499/499/499
f 498/498/498 500/500/500 494/494/494
f 500/500/500 493/493/493 494/494/494
f 493/493/493 501/501/501 419/419/419
f 419/419/419 501/501/501 418/418/418
f 418/418/418 501/501/501 436/436/436
f 436/436/436 501/501/501 493/493/493
f 500/500/500 436/436/436 493/493/493
f 500/500/500 446/446/446 436/436/436
f 500/500/500 498/498/498 446/446/446
f 498/498/498 499/499/499 446/446/446
f 446/446/446 499/499/499 447/447/447
f 486/486/486 502/502/502 499/499/499
f 499/499/499 502/502/502 447/447/447
f 449/449/449 502/502/502 486/486/486
f 447/447/447 502/502/502 449/449/449
