<?xml version="1.0" standalone="no"?><!DOCTYPE svg PUBLIC "-//W3C//DTD SVG 1.1//EN" "http://www.w3.org/Graphics/SVG/1.1/DTD/svg11.dtd"><svg t="1615363313629" class="icon" viewBox="0 256 1024 512" version="1.1" xmlns="http://www.w3.org/2000/svg" p-id="22877" xmlns:xlink="http://www.w3.org/1999/xlink" width="64" height="32"><path d="M465.648327 406.047347a104.489796 104.489796 0 0 1 79.76751-2.089796l5.099102 2.089796 331.608816 147.393306a20.897959 20.897959 0 0 1 10.595265 27.585306l-16.969142 38.20147a20.897959 20.897959 0 0 1-27.585307 10.616163l-331.608816-147.393306a20.897959 20.897959 0 0 0-14.607673-0.877715l-2.36147 0.877715L167.977796 629.86449a20.897959 20.897959 0 0 1-27.585306-10.616163l-16.969143-38.20147a20.897959 20.897959 0 0 1 10.616163-27.585306l331.608817-147.372408z" fill="#ffffff" p-id="22878"></path></svg>